<svg xmlns="http://www.w3.org/2000/svg" viewBox="0 0 1440.23 1147.41">
    <defs>
        <style>.cls-1{fill:#cbff88;}.cls-2{fill:#96ff00;}</style>
    </defs>
    <title>chuspipata</title>
    <g id="Capa_2" data-name="Capa 2">
        <g id="Capa_1-2" data-name="Capa 1">
            <path d="M542,1147.41H0v-246C97,1117.64,393,1147.41,542,1147.41Z"/>
            <path d="M1373,1147.41H542c149,0,310-79.95,432.81-170.11,119.41-87.66,199.75-17.77,242.52,21.44C1257.35,1035.41,1317.5,1147.41,1373,1147.41Z"/>
            <path d="M1373,1147.41c55.52,0,67.21-43.67,67.21-43.67v43.67Z"/>
            <g id="Capa_2-2" data-name="Capa 2">
                <g id="negro">
                    <path d="M1440.23,753.81s-39.45-83.27-129.4-95.94-194.8,9.19-260.15-20.33S985.13,466.25,946.29,430.31,820.35,406.29,774,224.63,501.53,25.94,435.91,26.34,92,25,0,456.28V0H1440.13l.06,465.17v.15Z"/>
                    <path class="cls-1"
                          d="M1085,58.89c-.93,20.77-7.5,41.85-19.53,62.65-7.5,13-16.9,24.68-26,36-6.1,7.58-12.4,15.43-18.06,23.59-15.84,22.79-23.5,49.48-31,75.29a4.18,4.18,0,0,1-3,3,5.09,5.09,0,0,1-1.1.13,4.94,4.94,0,0,1-3.48-1.43A4.11,4.11,0,0,1,982,254c7.4-25.77,15.05-52.42,30.56-75.55,6.2-9.23,13.21-18,20-26.5,9.75-12.19,19.82-24.8,27.52-38.86,12.5-22.84,17.64-46.82,15.73-73.31-.89-12.25-2.92-24.58-4.88-36.52q-.27-1.63-.54-3.3h8.93l.51,3.09C1082.79,21.28,1085.85,40.1,1085,58.89Z"/>
                    <path class="cls-1"
                          d="M1440.11,456.57l-2.2.06h-.43c-7.47,0-12.52-3.09-16.33-10a28.84,28.84,0,0,1-1.59-3.58,22.83,22.83,0,0,0-2.5-5.11c-1.8-2.55-5.6-6.88-10.86-7.23-4-.27-7,1.8-10,3.79-2.37,1.59-4.6,3.1-7.24,3.44-7.74,1-15.45-2.79-22.07-6.43-27.75-15.28-51.86-26.31-79.35-30.48-8.44-1.29-17-1.86-25.35-2.41-9.67-.64-19.69-1.3-29.4-3.1-4.36-.81-9.14-1.35-14.19-1.93-12.06-1.37-25.64-2.92-35.33-8.66l24.88-9.6c.91-.35,1.82-.68,2.71-1,4.57-1.69,8.89-3.27,12.66-6.71,7.19-6.54,12.14-16.26,16.12-24.08a4.67,4.67,0,0,0,.17-4,4.36,4.36,0,0,0-2.83-2.47c-33.24-9.61-68-11.68-101.7-13.69-16.22-1-32.95-2-49.4-3.78-10-1.12-23-2.72-35.86-5.26-.51-.11-1.28-.33-2.1-.57a17,17,0,0,0-4-.89h0c-.34-2.3.29-6.27.73-9.07.23-1.5.44-2.8.49-3.69s.12-1.88.18-2.84c.54-8,1.16-17-4-23.71-5.46-7.14-15.4-11.16-23.81-5.05a4.47,4.47,0,0,0-1.87,4.19,4.78,4.78,0,0,0,2.65,3.87,3.78,3.78,0,0,0,3.86-.52q4.9-3.56,8.19-1.88c4.9,2.55,6.32,13.37,6.25,18.21,0,3.2-.28,6.48-.49,9.63-.15,2.14-.29,4.33-.39,6.51a14.27,14.27,0,0,1-.09,1.62c-.25,4-.48,7.71,3.34,10.44s10.36,3.28,15.74,3.78c1.79.17,3.47.33,4.82.54,11.61,1.83,22.16,3.18,32.24,4.16,13.92,1.34,28.14,2.18,41.93,3,31.71,1.87,64.49,3.8,95.72,12.07-2.9,5.49-6.16,11.05-10.31,15.3-7.37,7.54-21.2,11.89-33.39,15.73-4.55,1.43-8.86,2.79-12.58,4.22a5,5,0,0,0-3.08,3.5,4.18,4.18,0,0,0,1.22,3.87c10.11,10.05,22,11.55,34.59,13.13,3.39.43,6.9.87,10.4,1.49a520.62,520.62,0,0,0,52.07,6.32c20.63,1.59,38.58,5.48,54.91,11.88,8.39,3.29,16.39,7.8,24.14,12.15,7.42,4.16,15.1,8.48,23.09,11.73a51.48,51.48,0,0,0,17.26,3.26c2.93.1,6.33-.89,9.6-1.85,5-1.48,10.17-3,13.57-.6,1.85,1.3,2.9,4.16,4,7.19,1.34,3.62,2.72,7.37,5.72,9.62,4.47,3.35,9.79,4.36,15.29,4.36,1.41,0,2.83-.08,4.24-.19C1440,462.43,1440.08,459.52,1440.11,456.57Z"/>
                    <circle class="cls-2" cx="979.35" cy="304.69" r="34.88"/>
                    <path class="cls-2"
                          d="M979.35,268.43a36.26,36.26,0,1,0,36.25,36.26A36.26,36.26,0,0,0,979.35,268.43Zm0,69.75a33.49,33.49,0,1,1,33.5-33.49A33.49,33.49,0,0,1,979.35,338.18Z"/>
                </g>
            </g>
            <path class="cls-1"
                  d="M1195,1147.41H1176a298,298,0,0,0-45.08-40c-12.58-9-27.32-19.91-42.46-24.09-19-5.23-38.48,9.53-52.74,21-15.37,12.41-28.06,27.14-39.2,43.09H980.34a251.76,251.76,0,0,1,20.07-27.74c17.7-20.88,48.37-51.18,77.81-52.18,25-.85,51.94,21.8,70.38,35.87A312.34,312.34,0,0,1,1195,1147.41Z"/>
        </g>
    </g>
</svg>
