<svg xmlns="http://www.w3.org/2000/svg" viewBox="0 0 1439.03 646.46">
    <defs>
        <style>.cls-1{fill:#cbff88;}.cls-2{fill:#96ff00;}</style>
    </defs>
    <title>cumbre</title>
    <g id="Capa_2" data-name="Capa 2">
        <g id="Capa_1-2" data-name="Capa 1">
            <g id="Capa_2-2" data-name="Capa 2">
                <g id="negro">
                    <path d="M1439,646.46H0V132.67s46.42,37.07,127-19.33S322.76-11.91,434.87,1.76,617,83,619.93,330.8c.87,74.6,33,130.05,79.1,171.09C739.59,538,791,563,841.29,580c82.42,27.92,162.11,34.61,187.2,34.31,45.46-.56,150.61-1,289.82-34.31,37.89-9.06,78.29-20.55,120.71-35.14V646.46Z"/>
                    <path class="cls-1"
                          d="M309.51,100.14a4.4,4.4,0,0,0-1-.1,3.88,3.88,0,0,0-4,3.26c-5.77,27.76-41.58,47.92-66.9,45-7.35-.85-14.79-2.77-22.67-4.8-15.29-3.93-31.1-8-46.11-3.69-16.29,4.67-27,17.71-37.26,30.31a181.82,181.82,0,0,1-13.77,15.73c-26.73,25.8-70,35.78-93.39,39.48a221.48,221.48,0,0,1-23.2,2.3v1.73c0,2.39-.06,4.77-.07,7.16l1.64-.08a232.32,232.32,0,0,0,98.28-28,114.47,114.47,0,0,0,32.61-26.79c2-2.31,4-4.76,5.89-7.14,6.73-8.33,13.69-17,22.79-22.34,16.09-9.54,34-4.91,53.06,0,12.81,3.29,26.06,6.7,38.49,5.21,24.64-3,54.57-29.18,59.32-52a4.53,4.53,0,0,0-3.59-5.31Z"/>
                    <path class="cls-1"
                          d="M739.2,625.39c11.88,6.1,24,12.67,35.06,21.07H757.78c-8.44-5.32-17.38-10.07-26.52-14.91-4.37-2.33-8.9-4.73-13.38-7.2C666.49,596,633,541.16,603.45,492.81l-3.16-5.19c-19.61-32-34.12-61.12-44.35-88.93-10.52-28.55-22.45-60.9-24.79-94A648.42,648.42,0,0,1,530,229.1c.31-6.59.8-13.22,1.27-19.63,1.06-14.58,2.15-29.65,1.21-44.77q-.11-1.8-.21-3.66c-.55-9.75-1.18-20.79-5.14-29.43-2.12-4.65-2.31-4.59-7.1-3l-1.26.4A104.16,104.16,0,0,1,501,132.8c-8.82,1.1-20.1,1.67-29.26-3.79-4.46-2.67-8.24-6.38-11.9-10-6.39-6.29-12.43-12.22-21.73-12.82a4.37,4.37,0,0,1-3.73-2.46A4.79,4.79,0,0,1,434.6,99a3.89,3.89,0,0,1,3.63-1.69c11.88.77,19.34,7.59,27.24,14.81l3,2.68c15,13.4,31.88,10.61,47.92,5.59l1.94-.63c5-1.67,9-3,13.6,2.12,5.11,5.74,6.4,15.29,7.43,23,.11.77.2,1.52.3,2.24,3,21.14,3.11,44,.36,68.08-2.75,24.21-1.75,49.59-.86,72,2.29,58.09,24.58,122.6,66.24,191.7,21.31,35.35,39.79,62.69,58.16,86C683.53,590.2,706.82,608.82,739.2,625.39Z"/>
                    <circle class="cls-2" cx="368.04" cy="90.74" r="40.85"/>
                    <path class="cls-2"
                          d="M368,48.52a42.23,42.23,0,1,0,42.23,42.23A42.23,42.23,0,0,0,368,48.52Zm0,81.71a39.48,39.48,0,1,1,39.48-39.48h0A39.47,39.47,0,0,1,368,130.23Z"/>
                </g>
            </g>
        </g>
    </g>
</svg>
