<svg xmlns="http://www.w3.org/2000/svg" xmlns:xlink="http://www.w3.org/1999/xlink" viewBox="0 0 2758.16 967.84"><defs><style>.cls-1{fill:none;}.cls-2{clip-path:url(#clip-path);}.cls-3{fill:#cbff88;}.cls-4{fill:#95aa6f;}.cls-5{fill:#96ff00;}.cls-6{font-size:26px;fill:#fff;font-family:Oswald-Regular, Oswald;}.cls-7{letter-spacing:-0.04em;}.cls-8{letter-spacing:-0.03em;}.cls-9{letter-spacing:-0.03em;}.cls-10{letter-spacing:0em;}.cls-11{letter-spacing:-0.03em;}.cls-12{letter-spacing:-0.02em;}.cls-13{letter-spacing:-0.01em;}</style><clipPath id="clip-path"><path class="cls-1" d="M1440,810.33s-31.84-37-185.69-5.4c-24.76,5.09,60.69-79.5,24.78-96.68-71.82-34.36-127.13-131.32-210-139.32-72.66-7-76.5,53.48-112,80.74s-134,34.49-206-15.3c-28.66-19.83,44-97.44,3.51-207.44C738.22,382.45,652,321,609.09,280.92c-60-56-28.86-148-98.51-173-146.4-52.68-126.3,62.94-237.45,21.32-76.73-28.74-42-67.17-69.73-84.37C144.73,8.42,105.53.08,105.53.08L1440,0Z"/></clipPath></defs><title>Recurso 1</title><g id="Capa_2" data-name="Capa 2"><g id="Capa_1-2" data-name="Capa 1"><path d="M0,0V592.5l1.38.6c.72.31,0,.56-1.38.71V900H1440V0Z"/><g class="cls-2"><image width="5996" height="1998" transform="translate(58.16 0.08) scale(0.45)" xlink:href="wood-1350175.jpg"/></g><path class="cls-3" d="M144.35,96c-.61,10.18,8.76,17.08,17.84,19.1,6,1.33,12.23,1,18.32,1.5,9,.68,17.13,3.47,23.52,10,4.49,4.59,7.74,10.08,13,13.87,4.83,3.44,10.44,5.58,16,7.51a198.52,198.52,0,0,1,36.55,16.77c22.64,13.39,44.74,27.08,72.11,25.53a84,84,0,0,0,35.61-10.12,41.35,41.35,0,0,0,11.76-9.67c3.22-3.76,6.19-8.23,10.53-10.8,10.12-6,22.55,3.15,33.45,1.84,8.47-1,19.51-10.17,21.27-18.63.33-1.57-2.08-2.24-2.41-.66-2.09,10-15.11,17.78-24.73,16.67-8-.93-16.8-5.43-24.89-3.1-8.38,2.4-12.58,11-18.46,16.67-8.72,8.42-22.46,12.63-34.18,14.46A81.15,81.15,0,0,1,311,183.59c-11.75-4-22.48-10.41-33.08-16.76-9.91-5.94-19.83-12-30.55-16.38-11.47-4.7-24.8-6.8-33.65-16.19-4.46-4.72-7.78-10.13-13.24-13.87a37.89,37.89,0,0,0-18.19-6.14c-11.78-1.12-36.56.08-35.46-18.24.1-1.61-2.4-1.6-2.5,0Z"/><path class="cls-3" d="M500.2,142.88c5.54.36,8.06,5.75,12.4,8.34,3.12,1.86,6.92,1.77,10.42,1.33a36.9,36.9,0,0,0,6.41-1.38c2.18-.68,2.5-1,3.48,1.16,1.65,3.61,1.73,8.28,2,12.17.5,7.93-.53,15.59-.9,23.47a234.55,234.55,0,0,0,.42,27.46c.83,11.77,4.95,23.11,9,34.11a184.36,184.36,0,0,0,16.11,32.3c11.18,18.27,23.38,39,42.66,49.62,10.86,6,21.69,10.41,28.41,21.49,5,8.28,8.76,17.81,17.78,22.56,1.42.75,2.69-1.41,1.26-2.16-9.21-4.86-12.54-15.07-17.92-23.31s-13.45-13.11-22.14-17.54c-11-5.62-19.95-12.34-27.64-22.11a305.83,305.83,0,0,1-21.19-31.34c-12.64-21-23.18-45.21-24.16-69.94-.34-8.7-.67-17.58.32-26.25a97.73,97.73,0,0,0-.13-24.68c-.39-2.76-.75-6.77-2.73-9-1.69-1.89-3.09-1.12-5.27-.43-6.49,2-12.51,2.62-17.79-2.11-3.35-3-6.06-6-10.77-6.27-1.61-.1-1.6,2.4,0,2.5Z"/><path class="cls-3" d="M690.56,392.31c11.74,11.68,15,28.72,21.62,43.34a71.06,71.06,0,0,0,11.74,18.69,50.82,50.82,0,0,0,6.91,6.17c2.6,2,5.06,3.6,5.79,7a51.07,51.07,0,0,1,.62,8.47c.42,10.32-1.63,19.33-4.9,29-2.79,8.22-4.33,16.08-3.65,24.8s2.88,17.36,3.52,26.14a47.46,47.46,0,0,1-5.77,26.87c-4.77,8.71-11.82,15.63-17.31,23.81s-8.35,17.92-11.07,27.39a1.25,1.25,0,0,0,2.41.66c2.74-9.55,5.57-19.26,11.3-27.5,5.15-7.4,11.47-13.81,16-21.66a49.62,49.62,0,0,0,7.06-22.63c.42-9.44-1.86-18.73-3.09-28a62,62,0,0,1,3-29.2c3-8.92,5.22-17.26,5.08-26.76-.11-7.32.4-14.51-5.91-19.25A57.87,57.87,0,0,1,717,439.87c-8.57-16.18-11.31-36-24.7-49.33a1.25,1.25,0,0,0-1.77,1.77Z"/><path class="cls-3" d="M712.11,641.66c4.91-3.57,5.87,3.88,5.83,6.24,0,2-.23,3.92-.32,5.89-.07,1.64-.37,3.08,1,4.08,1.7,1.22,5.36,1.2,7.33,1.51,3.89.61,7.79,1.13,11.71,1.51,17.41,1.68,35.14,1.13,52.05,6l-.75-1.84a30.54,30.54,0,0,1-4.76,7.48c-3.75,3.84-11.85,5.41-16.86,7.34a1.27,1.27,0,0,0-.55,2.09c4.59,4.56,10.25,4.17,16.18,5.22a190.12,190.12,0,0,0,18.91,2.29A69.06,69.06,0,0,1,822,693.85c6,2.36,11.27,6.28,17.19,8.69a18.65,18.65,0,0,0,6.16,1.16c2.62.1,6.39-2.41,8.63-.82,1.59,1.13,1.61,4.68,3.55,6.12,2.35,1.76,5.45,1.64,8.22,1.32,8.36-1,15.62-1.39,23,3.61a22.58,22.58,0,0,1,7.58,8.77c1.12,2.2,2.17,4.61,4.36,6,4.94,3.08,11.91-.07,15.6-3.74,5.57-5.52,3.92-14.17,2.38-21-.35-1.57-2.76-.91-2.41.66,2,8.9,2.57,19.34-8.17,22.38-8,2.24-8.94-6.15-12.9-10.67a28.31,28.31,0,0,0-14.07-8.5c-6.11-1.59-11.35.14-17.42.23a6.63,6.63,0,0,1-6.43-3.81,31.09,31.09,0,0,0-1.47-3.13,5.27,5.27,0,0,0-3.68-2.48c-2.43-.16-3.92,2.33-6.21,2.63-2.93.39-5.81-1-8.25-2.38-9.18-5.06-18.29-9.46-28.75-11.05-6.63-1-13.34-.78-19.94-2-6.37-1.18-15.58-.85-20.32-5.56l-.55,2.09,11.84-4.57c2-.77,3.89-1.3,5.48-2.74,2.51-2.28,4.27-5.67,5.79-8.66a1.27,1.27,0,0,0-.75-1.84c-17.87-5.18-36.56-4.3-54.92-6.35-4.37-.49-8.76-1.06-13.08-1.92-.77-.15-2.75-.94-2.33-.24-.61-1,.18-4.19.25-5.31.18-3.08.7-6.8-1.31-9.42s-5.42-3.76-8.16-1.77c-1.29.94,0,3.11,1.26,2.16Z"/><path class="cls-3" d="M934.58,693.33c-.27,8.09,7.59,20.38,16.55,14.37,3.65-2.45,6.21-5.21,10.65-6.34s8,.24,12.25,1.16c5.68,1.22,10.41-1.88,14.69-5.3,4.43-3.54,6.46-6.39,6.83-11.89a6.33,6.33,0,0,0-.53-1.88q1.21-5.81,6.27-5c1.57,0,3.13.14,4.71,0a17.56,17.56,0,0,0,5.45-1.51,20.45,20.45,0,0,0,11.2-23.39l-1.21,1.58c15.46,2,25-12,31.31-23.86,3.9-7.32,7.75-15,14.33-20.31,2.57-2.08,6.1-4.74,9.52-3.8,2.73.75,5.39,2.72,7.66,4.35,12.79,9.16,19.35,23,27.49,36.07,7.38,11.79,16,19.87,28.81,25.45,11.69,5.08,24.63,7,36.11,12.5,1.45.69,2.72-1.47,1.26-2.16-10-4.75-21.19-6.73-31.52-10.65a73.24,73.24,0,0,1-18.61-9.78c-6.76-5.15-11.35-12.35-15.69-19.55-7.14-11.83-13.48-24.06-24.66-32.6-3.33-2.54-8.19-6.63-12.7-6.47-5.31.18-10.85,5.65-14,9.42-11.18,13.18-17,41.81-39.28,38.9-.83-.11-1.39.88-1.21,1.58,2.56,9.62-4.31,20.54-14.41,21.71-3.76.43-8.11-.77-11.32,1.86-4,3.26-.59,6.74-1.85,10.83-1.71,5.55-10.16,11.46-15.82,11.5-4.92,0-9-2.47-14.12-1.51-4.23.8-7.22,3.08-10.81,5.23-2.14,1.28-5.84,2.92-8.32,2.06-1.49-.52-3.34-2.68-4.12-3.85a14.33,14.33,0,0,1-2.35-8.7c.05-1.61-2.45-1.61-2.5,0Z"/><path class="cls-3" d="M1200.9,706.92c6.31,6.18,11.43,13.39,17.4,19.88,3.85,4.19,8.39,9.47,14.34,10.2,5.2.64,11.08-.83,16.14.31,3.34.75,5,2.75,3.17,5.43a70.1,70.1,0,0,1-4.83,6.19c-4.18,4.89-8.86,9.79-14.41,13.13-7.41,4.46-15.26,1.79-23.32,1.12-5.47-.45-14.36-.16-15.83,6.63-1.63,7.54,6.58,11.87,11.4,15.76,2.09,1.69,4.09,3.49,6,5.37,1.76,1.73,5.44,4.6,6.22,6.93,2.77,8.21-12,5.72-15.66,5.31-10.65-1.2-21-3.88-31.71-2.1a1.26,1.26,0,0,0-.75,1.84c2.12,3,4.19,6.11,6.37,9.09,1.76,2.4,4,4.66,5.25,7.36,4,8.33-3.14,14.57-8.16,20.27-1.06,1.2.7,3,1.77,1.77,4.67-5.3,11.1-10.94,10-18.74a17.54,17.54,0,0,0-3.61-8c-3.19-4.33-6.34-8.65-9.42-13.06l-.75,1.84c11.05-1.83,21.84,1.35,32.8,2.38,4.36.41,15.59,2,17.28-4.17.85-3.1-1.67-5.83-3.52-8a82.32,82.32,0,0,0-11.71-11.05c-1.85-1.44-3.86-2.73-5.61-4.3-3.73-3.36-5.36-9.81.37-12,5.34-2.07,12-.31,17.41.39,7,.9,12.47.3,18.27-3.72a71.5,71.5,0,0,0,13.77-13.14c1.78-2.13,5.43-5.5,6-8.37.91-5-5.27-6.74-8.93-6.79s-7.25.14-10.88,0c-5.22-.23-7.89-2.11-11.74-5.72-7.8-7.3-13.67-16.37-21.29-23.85-1.15-1.13-2.92.64-1.77,1.77Z"/><path class="cls-3" d="M1177.39,846.85c15.44-5.05,31.14-10.19,47.51-10.87,15.67-.65,30.56,1.47,46-2.68,15.73-4.24,30.73-7.82,47.18-6.48,16,1.3,31.24,6.77,46.83,10.24,1.57.35,2.24-2.06.66-2.41-15.21-3.39-30.07-8.6-45.64-10.16-15.88-1.59-30.89,1.08-46.1,5.4a92.34,92.34,0,0,1-25.69,4c-8.36,0-16.72-.81-25.08-.31-15.93,1-31.22,5.94-46.28,10.87-1.52.5-.87,2.91.66,2.41Z"/><circle class="cls-4" cx="136.65" cy="63.58" r="18.23"/><path class="cls-4" d="M136.65,82.31a18.73,18.73,0,1,1,18.73-18.73A18.75,18.75,0,0,1,136.65,82.31Zm0-36.45a17.73,17.73,0,1,0,17.73,17.73A17.75,17.75,0,0,0,136.65,45.85Z"/><circle class="cls-5" cx="474.69" cy="137.62" r="14.86"/><path class="cls-5" d="M474.69,153A15.36,15.36,0,1,1,490,137.62,15.38,15.38,0,0,1,474.69,153Zm0-29.73A14.36,14.36,0,1,0,489,137.62,14.38,14.38,0,0,0,474.69,123.26Z"/><path class="cls-5" d="M670.21,394.66a13.19,13.19,0,1,1,13.19-13.19A13.21,13.21,0,0,1,670.21,394.66Z"/><circle class="cls-5" cx="696.76" cy="652.35" r="12.69"/><path class="cls-5" d="M696.76,665.54A13.19,13.19,0,1,1,710,652.35,13.21,13.21,0,0,1,696.76,665.54Zm0-25.38A12.19,12.19,0,1,0,709,652.35,12.2,12.2,0,0,0,696.76,640.16Z"/><circle class="cls-5" cx="1190.21" cy="694.94" r="9.1"/><path class="cls-5" d="M1190.21,704.54a9.6,9.6,0,1,1,9.6-9.6A9.61,9.61,0,0,1,1190.21,704.54Zm0-18.2a8.6,8.6,0,1,0,8.6,8.6A8.61,8.61,0,0,0,1190.21,686.34Z"/><circle class="cls-4" cx="1161.06" cy="849.63" r="9.1"/><path class="cls-4" d="M1161.06,859.23a9.6,9.6,0,1,1,9.6-9.6A9.61,9.61,0,0,1,1161.06,859.23Zm0-18.2a8.6,8.6,0,1,0,8.6,8.6A8.61,8.61,0,0,0,1161.06,841Z"/><circle class="cls-4" cx="1391.06" cy="847.83" r="17.1"/><path class="cls-4" d="M1391.06,865.42a17.6,17.6,0,1,1,17.6-17.6A17.62,17.62,0,0,1,1391.06,865.42Zm0-34.2a16.6,16.6,0,1,0,16.6,16.6A16.62,16.62,0,0,0,1391.06,831.23Z"/><circle class="cls-5" cx="922.59" cy="691.34" r="7.19"/><path class="cls-5" d="M922.59,699a7.69,7.69,0,1,1,7.69-7.69A7.7,7.7,0,0,1,922.59,699Zm0-14.38a6.69,6.69,0,1,0,6.69,6.69A6.7,6.7,0,0,0,922.59,684.65Z"/><text class="cls-6" transform="translate(39.49 115.7)">LA <tspan class="cls-7" x="29.07" y="0">P</tspan><tspan x="40.56" y="0">AZ</tspan></text><text class="cls-6" transform="translate(377.02 211.48)">LA CUMBRE</text><text class="cls-6" transform="translate(553.02 423.09)">UNDU<tspan class="cls-8" x="55.67" y="0">A</tspan><tspan x="67.73" y="0">VI</tspan></text><text class="cls-6" transform="translate(561.59 629.02)">CHUSPI<tspan class="cls-7" x="73.32" y="0">P</tspan><tspan class="cls-9" x="84.81" y="0">A</tspan><tspan class="cls-10" x="96.77" y="0">T</tspan><tspan x="107.46" y="0">A</tspan></text><text class="cls-6" transform="translate(887.96 750.98)">SAN JUAN <tspan class="cls-11" x="-7.42" y="31.2">W</tspan><tspan class="cls-9" x="10.75" y="31.2">A</tspan><tspan x="22.71" y="31.2">TER</tspan><tspan class="cls-12" x="57.52" y="31.2">F</tspan><tspan x="67.22" y="31.2">ALL</tspan></text><text class="cls-6" transform="translate(1060.42 739.31)">RED MOUN<tspan class="cls-10" x="102.75" y="0">T</tspan><tspan x="113.44" y="0">AIN </tspan><tspan x="28.09" y="31.2">BA</tspan><tspan class="cls-13" x="54.51" y="31.2">L</tspan><tspan x="64.67" y="31.2">CONY</tspan></text><text class="cls-6" transform="translate(1055.56 876.98)">YO<tspan class="cls-13" x="26.52" y="0">L</tspan><tspan x="36.69" y="0">OSA</tspan></text><text class="cls-6" transform="translate(1272.92 878.79)">COROICO</text></g></g></svg>