<svg width="1448" height="908" viewBox="0 0 1448 908" fill="none" xmlns="http://www.w3.org/2000/svg">
<g filter="url(#filter0_d)">
<path d="M4 0V592.5L5.38 593.1C6.1 593.41 5.38 593.66 4 593.81V900H1444V810.33C1444 810.33 1405.41 789.96 1364.75 792.16C1316.2 794.78 1268.42 805.1 1253.75 803.29C1235.4 801.02 1337.21 718.29 1262.21 699.04C1201.08 683.37 1169.82 587.87 1098.21 574.21C989.37 553.44 1000.13 651.85 931.58 661.21C831.5 674.88 775.16 652.42 756.28 629.88C733.54 602.74 760.82 565.38 774.74 457.27C782.12 399.94 693.74 357.06 628.44 283.77C553.44 199.53 589 88.86 460.59 87.94C362.75 87.24 375.3 165.85 272.37 127.39C191.37 97.12 260.64 94.81 182.72 30.51C165.64 16.37 128.08 4.28 109.53 0.08L4 0Z" fill="black"/>
<path d="M148.35 96C147.74 106.18 157.11 113.08 166.19 115.1C172.19 116.43 178.42 116.1 184.51 116.6C193.51 117.28 201.64 120.07 208.03 126.6C212.52 131.19 215.77 136.68 221.03 140.47C225.86 143.91 231.47 146.05 237.03 147.98C249.75 152.318 261.996 157.937 273.58 164.75C296.22 178.14 318.32 191.83 345.69 190.28C358.165 189.597 370.33 186.14 381.3 180.16C385.785 177.692 389.772 174.413 393.06 170.49C396.28 166.73 399.25 162.26 403.59 159.69C413.71 153.69 426.14 162.84 437.04 161.53C445.51 160.53 456.55 151.36 458.31 142.9C458.64 141.33 456.23 140.66 455.9 142.24C453.81 152.24 440.79 160.02 431.17 158.91C423.17 157.98 414.37 153.48 406.28 155.81C397.9 158.21 393.7 166.81 387.82 172.48C379.1 180.9 365.36 185.11 353.64 186.94C340.679 188.963 327.42 187.813 315 183.59C303.25 179.59 292.52 173.18 281.92 166.83C272.01 160.89 262.09 154.83 251.37 150.45C239.9 145.75 226.57 143.65 217.72 134.26C213.26 129.54 209.94 124.13 204.48 120.39C199.044 116.816 192.78 114.701 186.29 114.25C174.51 113.13 149.73 114.33 150.83 96.01C150.93 94.4 148.43 94.41 148.33 96.01L148.35 96Z" fill="#CBFF88"/>
<path d="M504.2 142.88C509.74 143.24 512.26 148.63 516.6 151.22C519.72 153.08 523.52 152.99 527.02 152.55C529.193 152.281 531.338 151.819 533.43 151.17C535.61 150.49 535.93 150.17 536.91 152.33C538.56 155.94 538.64 160.61 538.91 164.5C539.41 172.43 538.38 180.09 538.01 187.97C537.614 197.124 537.754 206.293 538.43 215.43C539.26 227.2 543.38 238.54 547.43 249.54C551.731 260.808 557.126 271.626 563.54 281.84C574.72 300.11 586.92 320.84 606.2 331.46C617.06 337.46 627.89 341.87 634.61 352.95C639.61 361.23 643.37 370.76 652.39 375.51C653.81 376.26 655.08 374.1 653.65 373.35C644.44 368.49 641.11 358.28 635.73 350.04C630.35 341.8 622.28 336.93 613.59 332.5C602.59 326.88 593.64 320.16 585.95 310.39C578.247 300.391 571.17 289.924 564.76 279.05C552.12 258.05 541.58 233.84 540.6 209.11C540.26 200.41 539.93 191.53 540.92 182.86C541.92 174.661 541.876 166.368 540.79 158.18C540.4 155.42 540.04 151.41 538.06 149.18C536.37 147.29 534.97 148.06 532.79 148.75C526.3 150.75 520.28 151.37 515 146.64C511.65 143.64 508.94 140.64 504.23 140.37C502.62 140.27 502.63 142.77 504.23 142.87L504.2 142.88Z" fill="#CBFF88"/>
<path d="M694.56 392.31C706.3 403.99 709.56 421.03 716.18 435.65C719.096 442.453 723.057 448.759 727.92 454.34C730.031 456.603 732.344 458.668 734.83 460.51C737.43 462.51 739.89 464.11 740.62 467.51C741.061 470.311 741.269 473.144 741.24 475.98C741.66 486.3 739.61 495.31 736.34 504.98C733.55 513.2 732.01 521.06 732.69 529.78C733.37 538.5 735.57 547.14 736.21 555.92C736.979 565.25 734.971 574.598 730.44 582.79C725.67 591.5 718.62 598.42 713.13 606.6C707.64 614.78 704.78 624.52 702.06 633.99C701.984 634.306 702.034 634.638 702.199 634.918C702.365 635.197 702.632 635.402 702.945 635.487C703.258 635.573 703.593 635.534 703.877 635.377C704.162 635.221 704.374 634.96 704.47 634.65C707.21 625.1 710.04 615.39 715.77 607.15C720.92 599.75 727.24 593.34 731.77 585.49C735.917 578.628 738.34 570.863 738.83 562.86C739.25 553.42 736.97 544.13 735.74 534.86C734.388 525.027 735.417 515.013 738.74 505.66C741.74 496.74 743.96 488.4 743.82 478.9C743.71 471.58 744.22 464.39 737.91 459.65C730.845 454.426 725.062 447.662 721 439.87C712.43 423.69 709.69 403.87 696.3 390.54C696.065 390.305 695.747 390.173 695.415 390.173C695.083 390.173 694.765 390.305 694.53 390.54C694.295 390.775 694.163 391.093 694.163 391.425C694.163 391.757 694.295 392.075 694.53 392.31H694.56Z" fill="#CBFF88"/>
<path d="M716.11 641.66C721.02 638.09 721.98 645.54 721.94 647.9C721.94 649.9 721.71 651.82 721.62 653.79C721.55 655.43 721.25 656.87 722.62 657.87C724.32 659.09 727.98 659.07 729.95 659.38C733.84 659.99 737.74 660.51 741.66 660.89C759.07 662.57 776.8 662.02 793.71 666.89L792.96 665.05C791.746 667.762 790.142 670.282 788.2 672.53C784.45 676.37 776.35 677.94 771.34 679.87C771.133 679.933 770.945 680.048 770.795 680.204C770.645 680.36 770.537 680.552 770.482 680.762C770.427 680.971 770.426 681.191 770.48 681.401C770.534 681.611 770.641 681.803 770.79 681.96C775.38 686.52 781.04 686.13 786.97 687.18C793.231 688.259 799.542 689.023 805.88 689.47C812.768 689.916 819.55 691.393 826 693.85C832 696.21 837.27 700.13 843.19 702.54C845.163 703.271 847.246 703.664 849.35 703.7C851.97 703.8 855.74 701.29 857.98 702.88C859.57 704.01 859.59 707.56 861.53 709C863.88 710.76 866.98 710.64 869.75 710.32C878.11 709.32 885.37 708.93 892.75 713.93C895.997 716.144 898.61 719.167 900.33 722.7C901.45 724.9 902.5 727.31 904.69 728.7C909.63 731.78 916.6 728.63 920.29 724.96C925.86 719.44 924.21 710.79 922.67 703.96C922.32 702.39 919.91 703.05 920.26 704.62C922.26 713.52 922.83 723.96 912.09 727C904.09 729.24 903.15 720.85 899.19 716.33C895.444 712.167 890.547 709.209 885.12 707.83C879.01 706.24 873.77 707.97 867.7 708.06C866.369 708.145 865.044 707.827 863.897 707.147C862.75 706.468 861.834 705.458 861.27 704.25C860.838 703.18 860.348 702.135 859.8 701.12C859.404 700.464 858.869 699.902 858.234 699.474C857.598 699.045 856.877 698.761 856.12 698.64C853.69 698.48 852.2 700.97 849.91 701.27C846.98 701.66 844.1 700.27 841.66 698.89C832.48 693.83 823.37 689.43 812.91 687.84C806.28 686.84 799.57 687.06 792.97 685.84C786.6 684.66 777.39 684.99 772.65 680.28L772.1 682.37L783.94 677.8C785.94 677.03 787.83 676.5 789.42 675.06C791.93 672.78 793.69 669.39 795.21 666.4C795.303 666.234 795.358 666.048 795.37 665.857C795.382 665.667 795.351 665.476 795.278 665.299C795.206 665.122 795.095 664.964 794.954 664.836C794.812 664.708 794.643 664.614 794.46 664.56C776.59 659.38 757.9 660.26 739.54 658.21C735.17 657.72 730.78 657.15 726.46 656.29C725.69 656.14 723.71 655.35 724.13 656.05C723.52 655.05 724.31 651.86 724.38 650.74C724.56 647.66 725.08 643.94 723.07 641.32C721.06 638.7 717.65 637.56 714.91 639.55C713.62 640.49 714.91 642.66 716.17 641.71L716.11 641.66Z" fill="#CBFF88"/>
<path d="M938.58 693.33C938.31 701.42 946.17 713.71 955.13 707.7C958.78 705.25 961.34 702.49 965.78 701.36C970.22 700.23 973.78 701.6 978.03 702.52C983.71 703.74 988.44 700.64 992.72 697.22C997.15 693.68 999.18 690.83 999.55 685.33C999.472 684.68 999.293 684.045 999.02 683.45C999.827 679.577 1001.92 677.91 1005.29 678.45C1006.86 678.45 1008.42 678.59 1010 678.45C1011.89 678.244 1013.73 677.734 1015.45 676.94C1019.73 674.937 1023.19 671.512 1025.23 667.247C1027.27 662.983 1027.77 658.142 1026.65 653.55L1025.44 655.13C1040.9 657.13 1050.44 643.13 1056.75 631.27C1060.65 623.95 1064.5 616.27 1071.08 610.96C1073.65 608.88 1077.18 606.22 1080.6 607.16C1083.33 607.91 1085.99 609.88 1088.26 611.51C1101.05 620.67 1107.61 634.51 1115.75 647.58C1123.13 659.37 1131.75 667.45 1144.56 673.03C1156.25 678.11 1169.19 680.03 1180.67 685.53C1182.12 686.22 1183.39 684.06 1181.93 683.37C1171.93 678.62 1160.74 676.64 1150.41 672.72C1143.77 670.372 1137.5 667.078 1131.8 662.94C1125.04 657.79 1120.45 650.59 1116.11 643.39C1108.97 631.56 1102.63 619.33 1091.45 610.79C1088.12 608.25 1083.26 604.16 1078.75 604.32C1073.44 604.5 1067.9 609.97 1064.75 613.74C1053.57 626.92 1047.75 655.55 1025.47 652.64C1024.64 652.53 1024.08 653.52 1024.26 654.22C1026.82 663.84 1019.95 674.76 1009.85 675.93C1006.09 676.36 1001.74 675.16 998.53 677.79C994.53 681.05 997.94 684.53 996.68 688.62C994.97 694.17 986.52 700.08 980.86 700.12C975.94 700.12 971.86 697.65 966.74 698.61C962.51 699.41 959.52 701.69 955.93 703.84C953.79 705.12 950.09 706.76 947.61 705.9C946.12 705.38 944.27 703.22 943.49 702.05C941.791 699.478 940.967 696.427 941.14 693.35C941.19 691.74 938.69 691.74 938.64 693.35L938.58 693.33Z" fill="#CBFF88"/>
<path d="M1204.9 706.92C1211.21 713.1 1216.33 720.31 1222.3 726.8C1226.15 730.99 1230.69 736.27 1236.64 737C1241.84 737.64 1247.72 736.17 1252.78 737.31C1256.12 738.06 1257.78 740.06 1255.95 742.74C1254.46 744.892 1252.84 746.959 1251.12 748.93C1246.94 753.82 1242.26 758.72 1236.71 762.06C1229.3 766.52 1221.45 763.85 1213.39 763.18C1207.92 762.73 1199.03 763.02 1197.56 769.81C1195.93 777.35 1204.14 781.68 1208.96 785.57C1211.05 787.26 1213.05 789.06 1214.96 790.94C1216.72 792.67 1220.4 795.54 1221.18 797.87C1223.95 806.08 1209.18 803.59 1205.52 803.18C1194.87 801.98 1184.52 799.3 1173.81 801.08C1173.63 801.132 1173.46 801.226 1173.31 801.353C1173.17 801.481 1173.06 801.64 1172.99 801.817C1172.91 801.994 1172.88 802.186 1172.9 802.377C1172.91 802.568 1172.96 802.754 1173.06 802.92C1175.18 805.92 1177.25 809.03 1179.43 812.01C1181.19 814.41 1183.43 816.67 1184.68 819.37C1188.68 827.7 1181.54 833.94 1176.52 839.64C1175.46 840.84 1177.22 842.64 1178.29 841.41C1182.96 836.11 1189.39 830.47 1188.29 822.67C1187.78 819.741 1186.54 816.988 1184.68 814.67C1181.49 810.34 1178.34 806.02 1175.26 801.61L1174.51 803.45C1185.56 801.62 1196.35 804.8 1207.31 805.83C1211.67 806.24 1222.9 807.83 1224.59 801.66C1225.44 798.56 1222.92 795.83 1221.07 793.66C1217.54 789.603 1213.62 785.902 1209.36 782.61C1207.51 781.17 1205.5 779.88 1203.75 778.31C1200.02 774.95 1198.39 768.5 1204.12 766.31C1209.46 764.24 1216.12 766 1221.53 766.7C1228.53 767.6 1234 767 1239.8 762.98C1244.96 759.233 1249.59 754.814 1253.57 749.84C1255.35 747.71 1259 744.34 1259.57 741.47C1260.48 736.47 1254.3 734.73 1250.64 734.68C1246.98 734.63 1243.39 734.82 1239.76 734.68C1234.54 734.45 1231.87 732.57 1228.02 728.96C1220.22 721.66 1214.35 712.59 1206.73 705.11C1205.58 703.98 1203.81 705.75 1204.96 706.88L1204.9 706.92Z" fill="#CBFF88"/>
<path d="M1181.39 846.85C1196.83 841.8 1212.53 836.66 1228.9 835.98C1244.57 835.33 1259.46 837.45 1274.9 833.3C1290.63 829.06 1305.63 825.48 1322.08 826.82C1338.08 828.12 1353.32 833.59 1368.91 837.06C1370.48 837.41 1371.15 835 1369.57 834.65C1354.36 831.26 1339.5 826.05 1323.93 824.49C1308.05 822.9 1293.04 825.57 1277.83 829.89C1269.5 832.428 1260.85 833.775 1252.14 833.89C1243.78 833.89 1235.42 833.08 1227.06 833.58C1211.13 834.58 1195.84 839.52 1180.78 844.45C1179.26 844.95 1179.91 847.36 1181.44 846.86L1181.39 846.85Z" fill="#CBFF88"/>
<path d="M140.65 81.81C150.718 81.81 158.88 73.6482 158.88 63.58C158.88 53.5119 150.718 45.35 140.65 45.35C130.582 45.35 122.42 53.5119 122.42 63.58C122.42 73.6482 130.582 81.81 140.65 81.81Z" fill="#95AA6F"/>
<path d="M140.65 82.31C136.946 82.31 133.324 81.2115 130.244 79.1534C127.164 77.0953 124.763 74.1701 123.346 70.7476C121.928 67.3252 121.557 63.5592 122.28 59.9259C123.003 56.2927 124.786 52.9553 127.406 50.3359C130.025 47.7164 133.363 45.9326 136.996 45.2099C140.629 44.4872 144.395 44.8581 147.818 46.2757C151.24 47.6934 154.165 50.094 156.223 53.1742C158.281 56.2543 159.38 59.8755 159.38 63.58C159.375 68.5459 157.4 73.3068 153.888 76.8182C150.377 80.3297 145.616 82.3047 140.65 82.31ZM140.65 45.86C137.143 45.86 133.715 46.8998 130.8 48.848C127.884 50.7962 125.612 53.5653 124.27 56.805C122.928 60.0447 122.577 63.6096 123.261 67.0489C123.945 70.4882 125.633 73.6474 128.113 76.127C130.593 78.6066 133.752 80.2952 137.191 80.9793C140.63 81.6634 144.195 81.3123 147.435 79.9704C150.675 78.6284 153.444 76.3559 155.392 73.4402C157.34 70.5246 158.38 67.0966 158.38 63.59C158.377 58.8876 156.509 54.3784 153.185 51.0524C149.861 47.7263 145.352 45.8553 140.65 45.85V45.86Z" fill="#95AA6F"/>
<path d="M478.69 152.48C486.897 152.48 493.55 145.827 493.55 137.62C493.55 129.413 486.897 122.76 478.69 122.76C470.483 122.76 463.83 129.413 463.83 137.62C463.83 145.827 470.483 152.48 478.69 152.48Z" fill="#96FF00"/>
<path d="M478.69 153C475.651 153.01 472.677 152.118 470.145 150.437C467.613 148.756 465.636 146.362 464.466 143.557C463.295 140.753 462.982 137.664 463.568 134.682C464.153 131.699 465.61 128.958 467.754 126.804C469.898 124.65 472.633 123.18 475.613 122.581C478.592 121.982 481.683 122.281 484.493 123.439C487.302 124.597 489.706 126.562 491.398 129.087C493.091 131.611 493.996 134.581 494 137.62C494 141.687 492.389 145.588 489.52 148.471C486.651 151.353 482.757 152.982 478.69 153V153ZM478.69 123.27C475.847 123.26 473.066 124.094 470.697 125.666C468.329 127.239 466.481 129.479 465.387 132.102C464.292 134.726 464.001 137.615 464.551 140.404C465.1 143.194 466.465 145.757 468.472 147.77C470.479 149.783 473.039 151.155 475.826 151.712C478.614 152.269 481.504 151.986 484.131 150.899C486.757 149.812 489.002 147.97 490.581 145.606C492.16 143.242 493.002 140.463 493 137.62C492.995 133.822 491.487 130.18 488.806 127.489C486.125 124.799 482.488 123.279 478.69 123.26V123.27Z" fill="#96FF00"/>
<path d="M674.21 394.66C671.601 394.66 669.051 393.886 666.882 392.437C664.713 390.988 663.022 388.928 662.024 386.518C661.026 384.107 660.765 381.455 661.273 378.897C661.782 376.338 663.039 373.988 664.883 372.143C666.728 370.299 669.078 369.042 671.637 368.533C674.195 368.025 676.847 368.286 679.258 369.284C681.668 370.282 683.728 371.973 685.177 374.142C686.626 376.311 687.4 378.861 687.4 381.47C687.395 384.967 686.003 388.318 683.531 390.791C681.058 393.263 677.707 394.655 674.21 394.66V394.66Z" fill="#96FF00"/>
<path d="M700.76 665.04C707.769 665.04 713.45 659.358 713.45 652.35C713.45 645.341 707.769 639.66 700.76 639.66C693.752 639.66 688.07 645.341 688.07 652.35C688.07 659.358 693.752 665.04 700.76 665.04Z" fill="#96FF00"/>
<path d="M700.76 665.54C698.153 665.53 695.608 664.748 693.446 663.293C691.283 661.838 689.6 659.774 688.61 657.363C687.619 654.952 687.365 652.302 687.88 649.746C688.394 647.191 689.654 644.845 691.501 643.006C693.348 641.166 695.698 639.915 698.255 639.41C700.812 638.905 703.462 639.169 705.869 640.169C708.276 641.169 710.333 642.859 711.781 645.027C713.228 647.195 714 649.743 714 652.35C713.997 654.086 713.653 655.804 712.986 657.406C712.319 659.008 711.343 660.464 710.113 661.689C708.884 662.914 707.425 663.884 705.82 664.545C704.215 665.206 702.496 665.544 700.76 665.54V665.54ZM700.76 640.16C698.351 640.17 695.999 640.893 694.001 642.239C692.003 643.584 690.449 645.491 689.534 647.72C688.619 649.948 688.384 652.397 688.86 654.759C689.336 657.12 690.501 659.287 692.208 660.987C693.915 662.687 696.087 663.843 698.45 664.309C700.813 664.776 703.262 664.531 705.486 663.607C707.711 662.683 709.612 661.121 710.949 659.117C712.286 657.114 713 654.759 713 652.35C712.999 650.745 712.681 649.157 712.065 647.675C711.448 646.193 710.546 644.848 709.409 643.716C708.272 642.583 706.923 641.686 705.439 641.076C703.955 640.466 702.365 640.155 700.76 640.16Z" fill="#96FF00"/>
<path d="M1194.21 704.04C1199.24 704.04 1203.31 699.966 1203.31 694.94C1203.31 689.914 1199.24 685.84 1194.21 685.84C1189.18 685.84 1185.11 689.914 1185.11 694.94C1185.11 699.966 1189.18 704.04 1194.21 704.04Z" fill="#96FF00"/>
<path d="M1194.21 704.54C1192.31 704.54 1190.46 703.977 1188.88 702.922C1187.3 701.867 1186.07 700.368 1185.34 698.614C1184.61 696.86 1184.42 694.929 1184.79 693.067C1185.16 691.205 1186.08 689.494 1187.42 688.152C1188.76 686.809 1190.47 685.895 1192.34 685.525C1194.2 685.154 1196.13 685.344 1197.88 686.071C1199.64 686.797 1201.14 688.028 1202.19 689.607C1203.25 691.185 1203.81 693.041 1203.81 694.94C1203.81 697.485 1202.8 699.926 1201 701.725C1199.2 703.525 1196.76 704.537 1194.21 704.54ZM1194.21 686.34C1192.51 686.34 1190.85 686.844 1189.43 687.789C1188.02 688.734 1186.92 690.078 1186.26 691.649C1185.61 693.22 1185.44 694.95 1185.78 696.618C1186.11 698.286 1186.93 699.818 1188.13 701.021C1189.33 702.224 1190.86 703.043 1192.53 703.375C1194.2 703.707 1195.93 703.536 1197.5 702.885C1199.07 702.234 1200.42 701.132 1201.36 699.718C1202.31 698.304 1202.81 696.641 1202.81 694.94C1202.81 692.66 1201.9 690.474 1200.29 688.862C1198.68 687.25 1196.49 686.343 1194.21 686.34V686.34Z" fill="#96FF00"/>
<path d="M1165.06 858.73C1170.09 858.73 1174.16 854.656 1174.16 849.63C1174.16 844.604 1170.09 840.53 1165.06 840.53C1160.03 840.53 1155.96 844.604 1155.96 849.63C1155.96 854.656 1160.03 858.73 1165.06 858.73Z" fill="#95AA6F"/>
<path d="M1165.06 859.23C1163.16 859.23 1161.31 858.667 1159.73 857.612C1158.15 856.557 1156.92 855.058 1156.19 853.304C1155.46 851.55 1155.27 849.619 1155.64 847.757C1156.01 845.895 1156.93 844.184 1158.27 842.842C1159.61 841.499 1161.32 840.585 1163.19 840.215C1165.05 839.844 1166.98 840.034 1168.73 840.761C1170.49 841.487 1171.99 842.718 1173.04 844.297C1174.1 845.875 1174.66 847.731 1174.66 849.63C1174.66 852.175 1173.65 854.616 1171.85 856.415C1170.05 858.215 1167.61 859.227 1165.06 859.23ZM1165.06 841.03C1163.36 841.03 1161.7 841.534 1160.28 842.479C1158.87 843.424 1157.77 844.768 1157.11 846.339C1156.46 847.91 1156.29 849.64 1156.63 851.308C1156.96 852.976 1157.78 854.508 1158.98 855.711C1160.18 856.914 1161.71 857.733 1163.38 858.065C1165.05 858.397 1166.78 858.226 1168.35 857.575C1169.92 856.924 1171.27 855.822 1172.21 854.408C1173.16 852.994 1173.66 851.331 1173.66 849.63C1173.66 848.499 1173.44 847.378 1173.01 846.331C1172.58 845.285 1171.95 844.334 1171.15 843.532C1170.35 842.731 1169.4 842.095 1168.36 841.66C1167.31 841.226 1166.19 841.001 1165.06 841V841.03Z" fill="#95AA6F"/>
<path d="M1395.06 864.93C1404.5 864.93 1412.16 857.274 1412.16 847.83C1412.16 838.386 1404.5 830.73 1395.06 830.73C1385.62 830.73 1377.96 838.386 1377.96 847.83C1377.96 857.274 1385.62 864.93 1395.06 864.93Z" fill="#95AA6F"/>
<path d="M1395.06 865.42C1391.58 865.42 1388.18 864.388 1385.28 862.454C1382.39 860.52 1380.13 857.771 1378.8 854.555C1377.47 851.339 1377.12 847.8 1377.8 844.386C1378.48 840.972 1380.15 837.836 1382.61 835.375C1385.08 832.914 1388.21 831.237 1391.63 830.558C1395.04 829.879 1398.58 830.228 1401.8 831.56C1405.01 832.892 1407.76 835.148 1409.69 838.042C1411.63 840.936 1412.66 844.339 1412.66 847.82C1412.65 852.486 1410.8 856.96 1407.5 860.259C1404.2 863.559 1399.73 865.415 1395.06 865.42V865.42ZM1395.06 831.22C1391.78 831.22 1388.57 832.194 1385.84 834.018C1383.11 835.842 1380.98 838.434 1379.72 841.467C1378.47 844.501 1378.14 847.838 1378.78 851.058C1379.42 854.279 1381 857.236 1383.32 859.558C1385.64 861.88 1388.6 863.46 1391.82 864.101C1395.04 864.742 1398.38 864.413 1401.41 863.156C1404.45 861.9 1407.04 859.772 1408.86 857.042C1410.69 854.313 1411.66 851.103 1411.66 847.82C1411.65 843.421 1409.9 839.204 1406.79 836.094C1403.68 832.985 1399.46 831.235 1395.06 831.23V831.22Z" fill="#95AA6F"/>
<path d="M926.59 698.53C930.561 698.53 933.78 695.311 933.78 691.34C933.78 687.369 930.561 684.15 926.59 684.15C922.619 684.15 919.4 687.369 919.4 691.34C919.4 695.311 922.619 698.53 926.59 698.53Z" fill="#96FF00"/>
<path d="M926.59 699C925.069 699 923.582 698.549 922.318 697.704C921.053 696.859 920.067 695.658 919.485 694.253C918.903 692.848 918.751 691.301 919.048 689.81C919.345 688.318 920.077 686.948 921.152 685.872C922.228 684.797 923.598 684.064 925.09 683.768C926.582 683.471 928.128 683.623 929.533 684.205C930.938 684.787 932.139 685.773 932.984 687.038C933.829 688.302 934.28 689.789 934.28 691.31C934.277 693.349 933.466 695.303 932.025 696.745C930.583 698.186 928.629 698.997 926.59 699V699ZM926.59 684.62C925.267 684.62 923.973 685.012 922.873 685.747C921.773 686.483 920.916 687.527 920.409 688.75C919.903 689.972 919.77 691.317 920.029 692.615C920.287 693.913 920.924 695.105 921.859 696.041C922.795 696.976 923.987 697.613 925.285 697.871C926.583 698.13 927.928 697.997 929.15 697.491C930.373 696.984 931.417 696.127 932.153 695.027C932.888 693.927 933.28 692.633 933.28 691.31C933.269 689.542 932.56 687.849 931.307 686.602C930.054 685.354 928.358 684.653 926.59 684.65V684.62Z" fill="#96FF00"/>
<path d="M45.12 115.7V94.64H48.06V113.64H53.44V115.75L45.12 115.7Z" fill="white"/>
<path d="M54.3 115.7L58.77 94.64H61.6L66.1 115.7H63.32L62.32 110.4H58.07L57.07 115.7H54.3ZM58.46 108.29H62L60.2 98.8L58.46 108.29Z" fill="white"/>
<path d="M74.19 115.7V94.64H79.42C80.4639 94.5951 81.5006 94.8335 82.42 95.33C83.1768 95.795 83.7573 96.4986 84.07 97.33C84.4412 98.3376 84.6177 99.4065 84.59 100.48C84.6163 101.475 84.4181 102.462 84.01 103.37C83.642 104.163 83.0378 104.823 82.28 105.26C81.4018 105.729 80.4149 105.957 79.42 105.92H77.13V115.72L74.19 115.7ZM77.13 103.79H78.48C79.1587 103.815 79.8363 103.717 80.48 103.5C80.705 103.408 80.9094 103.273 81.0811 103.101C81.2528 102.929 81.3885 102.725 81.48 102.5C81.7136 101.86 81.8189 101.181 81.79 100.5C81.8136 99.7238 81.7397 98.9478 81.57 98.19C81.5141 97.9447 81.4019 97.7158 81.2422 97.5214C81.0826 97.327 80.8798 97.1724 80.65 97.07C79.9504 96.826 79.2099 96.7207 78.47 96.76H77.13V103.79Z" fill="white"/>
<path d="M84.54 115.7L89 94.64H91.83L96.33 115.7H93.56L92.56 110.4H88.31L87.31 115.7H84.54ZM88.7 108.29H92.21L90.44 98.8L88.7 108.29Z" fill="white"/>
<path d="M97.83 115.7V113.6L104 96.75H98.2V94.64H107.12V95.91L100.61 113.6H107.14V115.71L97.83 115.7Z" fill="white"/>
<path d="M382.65 211.48V190.42H385.59V209.42H391V211.53L382.65 211.48Z" fill="white"/>
<path d="M391.83 211.48L396.3 190.42H399.13L403.63 211.48H400.85L399.85 206.18H395.6L394.6 211.48H391.83ZM395.99 204.07H399.5L397.73 194.58L395.99 204.07Z" fill="white"/>
<path d="M417 211.72C415.772 211.794 414.553 211.463 413.53 210.78C412.699 210.148 412.095 209.264 411.81 208.26C411.476 207.11 411.315 205.917 411.33 204.72V197.28C411.307 196.023 411.469 194.77 411.81 193.56C412.085 192.567 412.692 191.699 413.53 191.1C414.571 190.464 415.782 190.16 417 190.23C418.091 190.176 419.175 190.429 420.13 190.96C420.898 191.436 421.485 192.154 421.8 193C422.162 194.044 422.335 195.145 422.31 196.25V198H419.53V196.52C419.534 195.828 419.494 195.137 419.41 194.45C419.366 193.926 419.139 193.434 418.77 193.06C418.272 192.684 417.651 192.51 417.03 192.57C416.729 192.522 416.421 192.537 416.126 192.613C415.831 192.689 415.555 192.825 415.315 193.013C415.075 193.201 414.876 193.436 414.73 193.704C414.585 193.971 414.496 194.266 414.47 194.57C414.349 195.321 414.292 196.08 414.3 196.84V205.19C414.276 206.034 414.363 206.878 414.56 207.7C414.675 208.228 414.982 208.694 415.42 209.01C415.908 209.293 416.467 209.428 417.03 209.4C417.338 209.43 417.648 209.399 417.943 209.308C418.239 209.217 418.513 209.068 418.75 208.87C419.12 208.463 419.348 207.947 419.4 207.4C419.493 206.677 419.536 205.949 419.53 205.22V203.66H422.31V205.22C422.328 206.367 422.17 207.511 421.84 208.61C421.571 209.53 421.005 210.335 420.23 210.9C419.265 211.503 418.136 211.789 417 211.72V211.72Z" fill="white"/>
<path d="M430.54 211.72C429.303 211.8 428.073 211.481 427.03 210.81C426.198 210.174 425.611 209.269 425.37 208.25C425.057 206.988 424.909 205.69 424.93 204.39V190.39H427.74V204.48C427.734 205.307 427.794 206.133 427.92 206.95C427.999 207.606 428.274 208.223 428.71 208.72C429.231 209.14 429.88 209.37 430.55 209.37C431.22 209.37 431.869 209.14 432.39 208.72C432.819 208.22 433.09 207.604 433.17 206.95C433.296 206.133 433.356 205.307 433.35 204.48V190.42H436.13V204.42C436.151 205.72 436.003 207.018 435.69 208.28C435.449 209.297 434.867 210.2 434.04 210.84C432.998 211.502 431.771 211.811 430.54 211.72V211.72Z" fill="white"/>
<path d="M439.18 211.48L439.57 190.42H442.46L446.18 207.5L449.92 190.42H452.78L453.17 211.48H450.8L450.57 196.19L447 211.48H445.34L441.8 196.19L441.57 211.48H439.18Z" fill="white"/>
<path d="M456.39 211.48V190.42H461.23C462.067 190.405 462.902 190.509 463.71 190.73C464.363 190.922 464.963 191.265 465.46 191.73C465.926 192.188 466.27 192.755 466.46 193.38C466.7 194.14 466.814 194.933 466.8 195.73C466.817 196.492 466.709 197.252 466.48 197.98C466.295 198.565 465.949 199.085 465.48 199.48C464.988 199.864 464.4 200.106 463.78 200.18C464.537 200.334 465.243 200.678 465.83 201.18C466.364 201.659 466.764 202.269 466.99 202.95C467.26 203.786 467.389 204.662 467.37 205.54C467.379 206.374 467.275 207.205 467.06 208.01C466.87 208.709 466.529 209.358 466.06 209.91C465.601 210.443 465.022 210.857 464.37 211.12C463.596 211.423 462.77 211.569 461.94 211.55L456.39 211.48ZM459.33 199.21H461.07C461.755 199.249 462.439 199.13 463.07 198.86C463.538 198.628 463.897 198.223 464.07 197.73C464.279 197.085 464.377 196.408 464.36 195.73C464.417 194.999 464.265 194.267 463.92 193.62C463.759 193.395 463.553 193.207 463.316 193.065C463.078 192.924 462.814 192.834 462.54 192.8C461.733 192.674 460.917 192.617 460.1 192.63H459.4L459.33 199.21ZM459.33 209.38H461.33C461.811 209.446 462.302 209.397 462.76 209.237C463.219 209.077 463.634 208.811 463.97 208.46C464.487 207.549 464.717 206.504 464.63 205.46C464.651 204.705 464.532 203.952 464.28 203.24C464.072 202.675 463.677 202.199 463.16 201.89C462.524 201.553 461.809 201.394 461.09 201.43H459.35L459.33 209.38Z" fill="white"/>
<path d="M470 211.48V190.42H474.24C475.425 190.384 476.606 190.574 477.72 190.98C478.578 191.32 479.287 191.955 479.72 192.77C480.202 193.78 480.428 194.892 480.38 196.01C480.387 196.758 480.3 197.504 480.12 198.23C479.972 198.848 479.688 199.425 479.29 199.92C478.892 200.39 478.368 200.737 477.78 200.92L480.78 211.48H478L475.24 201.6H473V211.48H470ZM472.94 199.48H474.06C474.74 199.5 475.418 199.395 476.06 199.17C476.564 198.974 476.973 198.591 477.2 198.1C477.471 197.431 477.594 196.711 477.56 195.99C477.639 195.052 477.399 194.115 476.88 193.33C476.518 193.01 476.091 192.772 475.629 192.63C475.166 192.489 474.679 192.448 474.2 192.51H473L472.94 199.48Z" fill="white"/>
<path d="M483.51 211.48V190.42H491.67V192.6H486.44V199.6H490.68V201.68H486.44V209.4H491.72V211.51L483.51 211.48Z" fill="white"/>
<path d="M564.09 423.33C562.853 423.41 561.623 423.091 560.58 422.42C559.748 421.784 559.161 420.879 558.92 419.86C558.607 418.598 558.459 417.3 558.48 416V402H561.29V416.09C561.284 416.917 561.344 417.743 561.47 418.56C561.549 419.216 561.824 419.833 562.26 420.33C562.781 420.75 563.43 420.98 564.1 420.98C564.77 420.98 565.419 420.75 565.94 420.33C566.369 419.83 566.64 419.214 566.72 418.56C566.846 417.743 566.906 416.917 566.9 416.09V402H569.68V416C569.701 417.3 569.553 418.598 569.24 419.86C568.999 420.877 568.417 421.78 567.59 422.42C566.552 423.093 565.324 423.412 564.09 423.33V423.33Z" fill="white"/>
<path d="M572.77 423.09V402H574.77L580.77 416V402H583.21V423.06H581.34L575.28 408.68V423.06L572.77 423.09Z" fill="white"/>
<path d="M586.5 423.09V402H591.08C592.355 401.939 593.627 402.182 594.79 402.71C595.699 403.156 596.411 403.921 596.79 404.86C597.21 405.998 597.407 407.207 597.37 408.42V416.17C597.405 417.451 597.209 418.729 596.79 419.94C596.443 420.912 595.772 421.735 594.89 422.27C593.81 422.846 592.593 423.119 591.37 423.06L586.5 423.09ZM589.44 420.98H591.1C591.913 421.06 592.728 420.839 593.39 420.36C593.875 419.873 594.166 419.226 594.21 418.54C594.313 417.58 594.359 416.615 594.35 415.65V408.81C594.366 407.922 594.296 407.034 594.14 406.16C594.096 405.865 593.992 405.582 593.836 405.327C593.679 405.073 593.473 404.853 593.23 404.68C592.552 404.318 591.786 404.155 591.02 404.21H589.43L589.44 420.98Z" fill="white"/>
<path d="M605.64 423.33C604.403 423.41 603.173 423.091 602.13 422.42C601.298 421.784 600.711 420.879 600.47 419.86C600.146 418.599 599.988 417.302 600 416V402H602.81V416.09C602.804 416.917 602.864 417.743 602.99 418.56C603.069 419.216 603.344 419.833 603.78 420.33C604.301 420.75 604.95 420.98 605.62 420.98C606.29 420.98 606.939 420.75 607.46 420.33C607.889 419.83 608.16 419.214 608.24 418.56C608.366 417.743 608.426 416.917 608.42 416.09V402H611.2V416C611.221 417.3 611.073 418.598 610.76 419.86C610.519 420.877 609.936 421.78 609.11 422.42C608.08 423.086 606.864 423.405 605.64 423.33V423.33Z" fill="white"/>
<path d="M613.18 423.09L617.65 402H620.48L624.98 423.06H622.2L621.2 417.76H616.91L615.91 423.06L613.18 423.09ZM617.34 415.68H620.85L619.08 406.19L617.34 415.68Z" fill="white"/>
<path d="M630 423.09L625.34 402H628.1L631.43 417.52L634.6 402H637.28L632.63 423.06L630 423.09Z" fill="white"/>
<path d="M639.67 423.09V402H642.56V423.06L639.67 423.09Z" fill="white"/>
<path d="M572.5 629.25C571.272 629.324 570.053 628.993 569.03 628.31C568.199 627.678 567.595 626.794 567.31 625.79C566.976 624.64 566.815 623.447 566.83 622.25V614.81C566.807 613.553 566.969 612.3 567.31 611.09C567.584 610.097 568.191 609.228 569.03 608.63C570.071 607.994 571.282 607.69 572.5 607.76C573.591 607.706 574.675 607.959 575.63 608.49C576.401 608.978 576.985 609.71 577.29 610.57C577.652 611.614 577.825 612.715 577.8 613.82V615.48H575V614C575.004 613.308 574.964 612.617 574.88 611.93C574.836 611.406 574.609 610.914 574.24 610.54C573.742 610.164 573.121 609.99 572.5 610.05C572.199 610.002 571.891 610.017 571.596 610.093C571.301 610.169 571.025 610.305 570.785 610.493C570.545 610.681 570.346 610.916 570.2 611.184C570.055 611.451 569.966 611.746 569.94 612.05C569.819 612.8 569.762 613.56 569.77 614.32V622.67C569.746 623.514 569.833 624.358 570.03 625.18C570.145 625.708 570.452 626.174 570.89 626.49C571.378 626.773 571.937 626.909 572.5 626.88C572.808 626.91 573.118 626.879 573.413 626.788C573.709 626.697 573.983 626.548 574.22 626.35C574.59 625.943 574.818 625.427 574.87 624.88C574.963 624.157 575.006 623.429 575 622.7V621.14H577.78V622.7C577.798 623.847 577.64 624.991 577.31 626.09C577.041 627.01 576.475 627.815 575.7 628.38C574.749 628.994 573.631 629.298 572.5 629.25V629.25Z" fill="white"/>
<path d="M580.61 629V608H583.55V617.1H589V608H591.94V629H589V619.15H583.59V629H580.61Z" fill="white"/>
<path d="M600.63 629.25C599.393 629.33 598.163 629.011 597.12 628.34C596.288 627.704 595.701 626.799 595.46 625.78C595.147 624.518 594.999 623.22 595.02 621.92V608H597.83V622C597.824 622.827 597.884 623.653 598.01 624.47C598.089 625.126 598.364 625.743 598.8 626.24C599.321 626.66 599.97 626.89 600.64 626.89C601.31 626.89 601.959 626.66 602.48 626.24C602.909 625.74 603.18 625.124 603.26 624.47C603.386 623.653 603.446 622.827 603.44 622V608H606.22V622C606.241 623.3 606.093 624.598 605.78 625.86C605.539 626.877 604.957 627.78 604.13 628.42C603.082 629.065 601.855 629.355 600.63 629.25Z" fill="white"/>
<path d="M614.28 629.25C613.226 629.284 612.184 629.013 611.28 628.47C610.472 627.945 609.835 627.194 609.45 626.31C609.011 625.298 608.764 624.213 608.72 623.11L611.32 622.41C611.369 623.139 611.486 623.863 611.67 624.57C611.822 625.203 612.132 625.788 612.57 626.27C612.797 626.497 613.069 626.673 613.369 626.787C613.669 626.9 613.99 626.949 614.31 626.93C614.627 626.953 614.946 626.908 615.244 626.797C615.543 626.687 615.814 626.514 616.04 626.29C616.458 625.775 616.665 625.121 616.62 624.46C616.659 623.643 616.431 622.836 615.97 622.16C615.482 621.524 614.933 620.938 614.33 620.41L610.79 617.29C610.143 616.74 609.621 616.058 609.26 615.29C608.907 614.445 608.74 613.535 608.77 612.62C608.73 611.962 608.827 611.303 609.056 610.685C609.285 610.067 609.641 609.503 610.1 609.03C610.589 608.592 611.159 608.254 611.779 608.036C612.398 607.818 613.054 607.724 613.71 607.76C614.457 607.748 615.2 607.86 615.91 608.09C616.514 608.287 617.061 608.631 617.5 609.09C617.944 609.584 618.285 610.162 618.5 610.79C618.771 611.565 618.943 612.372 619.01 613.19L616.51 613.87C616.467 613.225 616.363 612.586 616.2 611.96C616.069 611.424 615.784 610.937 615.38 610.56C614.907 610.178 614.307 609.988 613.7 610.03C613.079 609.992 612.468 610.2 612 610.61C611.785 610.841 611.619 611.114 611.514 611.411C611.409 611.709 611.367 612.025 611.39 612.34C611.371 612.889 611.484 613.434 611.72 613.93C611.991 614.413 612.347 614.843 612.77 615.2L616.33 618.32C617.151 619.039 617.862 619.874 618.44 620.8C619.065 621.829 619.381 623.016 619.35 624.22C619.374 625.158 619.15 626.086 618.7 626.91C618.286 627.646 617.668 628.247 616.92 628.64C616.104 629.06 615.197 629.27 614.28 629.25V629.25Z" fill="white"/>
<path d="M621.62 629V608H626.85C627.894 607.955 628.931 608.193 629.85 608.69C630.607 609.155 631.187 609.859 631.5 610.69C631.871 611.698 632.048 612.767 632.02 613.84C632.046 614.835 631.848 615.822 631.44 616.73C631.072 617.523 630.468 618.183 629.71 618.62C628.832 619.089 627.845 619.316 626.85 619.28H624.54V629H621.62ZM624.56 617.09H625.91C626.589 617.115 627.266 617.017 627.91 616.8C628.135 616.708 628.339 616.573 628.511 616.401C628.683 616.229 628.818 616.025 628.91 615.8C629.144 615.16 629.249 614.481 629.22 613.8C629.243 613.024 629.17 612.248 629 611.49C628.944 611.245 628.832 611.016 628.672 610.821C628.513 610.627 628.31 610.472 628.08 610.37C627.38 610.126 626.64 610.021 625.9 610.06H624.52L624.56 617.09Z" fill="white"/>
<path d="M634.25 629V608H637.14V629H634.25Z" fill="white"/>
<path d="M640.54 629V608H645.77C646.814 607.955 647.851 608.193 648.77 608.69C649.527 609.155 650.107 609.859 650.42 610.69C650.791 611.698 650.968 612.767 650.94 613.84C650.966 614.835 650.768 615.822 650.36 616.73C649.992 617.523 649.388 618.183 648.63 618.62C647.752 619.089 646.765 619.316 645.77 619.28H643.46V629H640.54ZM643.48 617.09H644.83C645.509 617.115 646.186 617.017 646.83 616.8C647.055 616.708 647.259 616.573 647.431 616.401C647.603 616.229 647.738 616.025 647.83 615.8C648.064 615.16 648.169 614.481 648.14 613.8C648.164 613.024 648.09 612.248 647.92 611.49C647.864 611.245 647.752 611.016 647.592 610.821C647.433 610.627 647.23 610.472 647 610.37C646.3 610.126 645.56 610.021 644.82 610.06H643.44L643.48 617.09Z" fill="white"/>
<path d="M650.89 629L655.36 608H658.19L662.7 629H659.92L658.92 623.7H654.63L653.63 629H650.89ZM655.05 621.59H658.56L656.79 612.1L655.05 621.59Z" fill="white"/>
<path d="M666.31 629V610.14H662.75V608H672.75V610.18H669.29V629H666.31Z" fill="white"/>
<path d="M673.54 629L678 608H680.83L685.33 629.06H682.55L681.55 623.76H677.26L676.26 629.06L673.54 629ZM677.7 621.59H681.21L679.44 612.1L677.7 621.59Z" fill="white"/>
<path d="M898.56 751.22C897.506 751.254 896.464 750.983 895.56 750.44C894.752 749.915 894.115 749.164 893.73 748.28C893.291 747.268 893.044 746.183 893 745.08L895.6 744.38C895.649 745.109 895.766 745.833 895.95 746.54C896.102 747.173 896.412 747.758 896.85 748.24C897.077 748.466 897.35 748.642 897.65 748.756C897.949 748.869 898.27 748.919 898.59 748.9C898.907 748.923 899.226 748.878 899.524 748.767C899.823 748.657 900.094 748.484 900.32 748.26C900.739 747.746 900.946 747.092 900.9 746.43C900.939 745.613 900.711 744.806 900.25 744.13C899.762 743.494 899.213 742.908 898.61 742.38L895.07 739.26C894.423 738.711 893.901 738.029 893.54 737.26C893.188 736.419 893.021 735.512 893.05 734.6C893.01 733.942 893.107 733.283 893.336 732.665C893.565 732.047 893.921 731.483 894.38 731.01C894.868 730.57 895.438 730.23 896.058 730.011C896.677 729.791 897.334 729.696 897.99 729.73C898.737 729.718 899.48 729.829 900.19 730.06C900.794 730.257 901.341 730.601 901.78 731.06C902.225 731.553 902.565 732.132 902.78 732.76C903.052 733.538 903.224 734.348 903.29 735.17L900.79 735.85C900.747 735.205 900.643 734.566 900.48 733.94C900.349 733.404 900.064 732.917 899.66 732.54C899.194 732.159 898.601 731.966 898 732C897.379 731.962 896.768 732.17 896.3 732.58C896.085 732.811 895.919 733.084 895.814 733.381C895.709 733.679 895.667 733.995 895.69 734.31C895.67 734.859 895.784 735.404 896.02 735.9C896.291 736.383 896.647 736.813 897.07 737.17L900.63 740.29C901.451 741.009 902.161 741.845 902.74 742.77C903.365 743.799 903.681 744.986 903.65 746.19C903.675 747.128 903.451 748.057 903 748.88C902.586 749.616 901.968 750.217 901.22 750.61C900.398 751.033 899.484 751.243 898.56 751.22V751.22Z" fill="white"/>
<path d="M904.75 751L909.22 729.94H912.05L916.55 751H913.77L912.77 745.7H908.48L907.48 751H904.75ZM908.91 743.59H912.42L910.65 734.1L908.91 743.59Z" fill="white"/>
<path d="M918.69 751V729.92H920.69L926.69 743.92V729.92H929.13V751H927.26L921.2 736.62V751H918.69Z" fill="white"/>
<path d="M936.91 751.48V749.37C937.433 749.381 937.956 749.338 938.47 749.24C938.817 749.179 939.137 749.015 939.39 748.77C939.637 748.488 939.796 748.141 939.85 747.77C939.946 747.236 939.989 746.693 939.98 746.15V729.92H942.89V746.22C942.922 747.234 942.79 748.247 942.5 749.22C942.275 749.948 941.782 750.563 941.12 750.94C940.245 751.36 939.279 751.553 938.31 751.5L936.91 751.48Z" fill="white"/>
<path d="M951.63 751.22C950.393 751.3 949.162 750.981 948.12 750.31C947.287 749.674 946.701 748.77 946.46 747.75C946.147 746.488 945.999 745.19 946.02 743.89V729.89H948.83V744C948.824 744.827 948.884 745.653 949.01 746.47C949.089 747.126 949.364 747.743 949.8 748.24C950.321 748.66 950.97 748.89 951.64 748.89C952.31 748.89 952.959 748.66 953.48 748.24C953.909 747.74 954.181 747.124 954.26 746.47C954.386 745.653 954.446 744.827 954.44 744V729.92H957.22V743.92C957.241 745.22 957.093 746.518 956.78 747.78C956.54 748.797 955.957 749.701 955.13 750.34C954.088 751.002 952.861 751.311 951.63 751.22V751.22Z" fill="white"/>
<path d="M959.17 751L963.64 729.94H966.47L971 751H968.22L967.22 745.7H962.93L961.93 751H959.17ZM963.33 743.59H966.84L965.07 734.1L963.33 743.59Z" fill="white"/>
<path d="M973.1 751V729.92H975.1L981.1 743.92V729.92H983.54V751H981.67L975.61 736.62V751H973.1Z" fill="white"/>
<path d="M888.9 782.18L885.47 761.12H887.91L890.17 776.25L893 761.2H895.08L898 776.33L900.21 761.12H902.6L899.22 782.18H897L894.06 766.58L891.06 782.18H888.9Z" fill="white"/>
<path d="M903.2 782.18L907.67 761.12H910.5L915 782.18H912.22L911.22 776.88H907L906 782.18H903.2ZM907.36 774.77H910.87L909.1 765.28L907.36 774.77Z" fill="white"/>
<path d="M918.62 782.18V763.31H915.06V761.13H925.06V763.31H921.6V782.19L918.62 782.18Z" fill="white"/>
<path d="M927 782.18V761.12H935.16V763.3H930V770.3H934.24V772.38H930V780.1H935.28V782.21L927 782.18Z" fill="white"/>
<path d="M937.63 782.18V761.12H941.87C943.055 761.084 944.236 761.274 945.35 761.68C946.208 762.02 946.917 762.655 947.35 763.47C947.832 764.48 948.058 765.592 948.01 766.71C948.017 767.458 947.93 768.204 947.75 768.93C947.602 769.548 947.318 770.125 946.92 770.62C946.522 771.09 945.998 771.437 945.41 771.62L948.41 782.18H945.58L942.82 772.3H940.53V782.18H937.63ZM940.57 770.18H941.69C942.37 770.2 943.048 770.095 943.69 769.87C944.195 769.675 944.604 769.291 944.83 768.8C945.101 768.131 945.224 767.411 945.19 766.69C945.271 765.749 945.031 764.808 944.51 764.02C944.148 763.7 943.721 763.461 943.259 763.32C942.796 763.179 942.309 763.138 941.83 763.2H940.53L940.57 770.18Z" fill="white"/>
<path d="M951.12 782.18V761.12H959.26V763.23H954.06V770.23H958.06V772.31H954.06V782.16L951.12 782.18Z" fill="white"/>
<path d="M959.67 782.18L964.14 761.12H967L971.5 782.18H968.7L967.7 776.88H963.41L962.41 782.18H959.67ZM963.83 774.77H967.34L965.57 765.28L963.83 774.77Z" fill="white"/>
<path d="M973.61 782.18V761.12H976.55V780.12H981.93V782.23L973.61 782.18Z" fill="white"/>
<path d="M983.93 782.18V761.12H986.87V780.12H992.25V782.23L983.93 782.18Z" fill="white"/>
<path d="M1066.06 739.31V718.25H1070.3C1071.49 718.215 1072.67 718.405 1073.78 718.81C1074.64 719.151 1075.35 719.785 1075.78 720.6C1076.26 721.61 1076.49 722.722 1076.44 723.84C1076.45 724.588 1076.36 725.334 1076.18 726.06C1076.03 726.678 1075.75 727.255 1075.35 727.75C1074.95 728.221 1074.43 728.568 1073.84 728.75L1076.84 739.31H1074L1071.24 729.43H1069V739.31H1066.06ZM1069 727.31H1070.12C1070.8 727.331 1071.48 727.226 1072.12 727C1072.62 726.804 1073.03 726.421 1073.26 725.93C1073.53 725.261 1073.65 724.541 1073.62 723.82C1073.7 722.882 1073.46 721.945 1072.94 721.16C1072.58 720.84 1072.15 720.602 1071.69 720.46C1071.23 720.319 1070.74 720.278 1070.26 720.34H1069V727.31Z" fill="white"/>
<path d="M1079.55 739.31V718.25H1087.71V720.43H1082.48V727.43H1086.72V729.51H1082.48V737.23H1087.76V739.34L1079.55 739.31Z" fill="white"/>
<path d="M1090.13 739.31V718.25H1094.71C1095.99 718.189 1097.26 718.433 1098.42 718.96C1099.33 719.406 1100.04 720.171 1100.42 721.11C1100.84 722.248 1101.04 723.457 1101 724.67V732.42C1101.04 733.701 1100.84 734.979 1100.42 736.19C1100.07 737.162 1099.4 737.985 1098.52 738.52C1097.44 739.096 1096.22 739.369 1095 739.31H1090.13ZM1093.07 737.2H1094.73C1095.54 737.28 1096.36 737.059 1097.02 736.58C1097.5 736.093 1097.8 735.446 1097.84 734.76C1097.94 733.8 1097.99 732.835 1097.98 731.87V725C1098 724.112 1097.93 723.224 1097.77 722.35C1097.73 722.055 1097.62 721.772 1097.47 721.517C1097.31 721.263 1097.1 721.043 1096.86 720.87C1096.18 720.508 1095.42 720.345 1094.65 720.4H1093.06L1093.07 737.2Z" fill="white"/>
<path d="M1109.74 739.31L1110.13 718.25H1113L1116.72 735.33L1120.46 718.25H1123.32L1123.71 739.31H1121.34L1121.11 724.02L1117.55 739.31H1115.89L1112.36 724L1112.13 739.29L1109.74 739.31Z" fill="white"/>
<path d="M1132.33 739.55C1131.14 739.61 1129.95 739.322 1128.92 738.72C1128.06 738.154 1127.42 737.316 1127.1 736.34C1126.72 735.169 1126.53 733.942 1126.56 732.71V724.71C1126.53 723.493 1126.72 722.28 1127.12 721.13C1127.45 720.183 1128.09 719.376 1128.94 718.84C1129.97 718.265 1131.15 717.991 1132.33 718.05C1133.51 717.99 1134.68 718.272 1135.71 718.86C1136.55 719.404 1137.18 720.209 1137.52 721.15C1137.92 722.294 1138.11 723.499 1138.08 724.71V732.71C1138.1 733.93 1137.91 735.145 1137.52 736.3C1137.19 737.268 1136.55 738.103 1135.71 738.68C1134.7 739.302 1133.52 739.605 1132.33 739.55ZM1132.33 737.24C1132.96 737.285 1133.58 737.116 1134.1 736.76C1134.52 736.415 1134.8 735.939 1134.91 735.41C1135.06 734.753 1135.13 734.082 1135.12 733.41V724.18C1135.13 723.507 1135.06 722.836 1134.91 722.18C1134.8 721.665 1134.51 721.205 1134.1 720.88C1133.58 720.539 1132.95 720.378 1132.33 720.42C1131.7 720.383 1131.08 720.544 1130.55 720.88C1130.13 721.202 1129.84 721.663 1129.73 722.18C1129.58 722.836 1129.51 723.507 1129.52 724.18V733.41C1129.51 734.082 1129.58 734.753 1129.73 735.41C1129.84 735.941 1130.13 736.418 1130.55 736.76C1131.07 737.11 1131.7 737.275 1132.33 737.23V737.24Z" fill="white"/>
<path d="M1146.39 739.55C1145.15 739.63 1143.92 739.311 1142.88 738.64C1142.05 738.004 1141.46 737.1 1141.22 736.08C1140.91 734.818 1140.76 733.52 1140.78 732.22V718.22H1143.59V732.31C1143.58 733.137 1143.64 733.963 1143.77 734.78C1143.85 735.436 1144.12 736.053 1144.56 736.55C1145.08 736.97 1145.73 737.2 1146.4 737.2C1147.07 737.2 1147.72 736.97 1148.24 736.55C1148.67 736.05 1148.94 735.434 1149.02 734.78C1149.15 733.963 1149.21 733.137 1149.2 732.31V718.25H1152V732.25C1152.02 733.55 1151.87 734.848 1151.56 736.11C1151.32 737.127 1150.74 738.03 1149.91 738.67C1148.86 739.336 1147.63 739.645 1146.39 739.55Z" fill="white"/>
<path d="M1155.08 739.31V718.25H1157.08L1163.08 732.25V718.25H1165.52V739.31H1163.65L1157.59 724.93V739.31H1155.08Z" fill="white"/>
<path d="M1171.12 739.31V720.44H1167.56V718.26H1177.56V720.44H1174.1V739.32L1171.12 739.31Z" fill="white"/>
<path d="M1178.35 739.31L1182.82 718.25H1185.65L1190.15 739.31H1187.37L1186.37 734.01H1182.08L1181.08 739.31H1178.35ZM1182.51 731.9H1186L1184.23 722.41L1182.51 731.9Z" fill="white"/>
<path d="M1192.44 739.31V718.25H1195.33V739.31H1192.44Z" fill="white"/>
<path d="M1198.73 739.31V718.25H1200.73L1206.73 732.25V718.25H1209.17V739.31H1207.3L1201.24 724.93V739.31H1198.73Z" fill="white"/>
<path d="M1094.15 770.51V749.45H1099C1099.84 749.435 1100.67 749.539 1101.48 749.76C1102.13 749.952 1102.73 750.295 1103.23 750.76C1103.7 751.218 1104.04 751.785 1104.23 752.41C1104.47 753.17 1104.58 753.963 1104.57 754.76C1104.59 755.522 1104.48 756.282 1104.25 757.01C1104.06 757.594 1103.72 758.114 1103.25 758.51C1102.76 758.894 1102.17 759.136 1101.55 759.21C1102.31 759.364 1103.01 759.708 1103.6 760.21C1104.13 760.689 1104.53 761.299 1104.76 761.98C1105.03 762.816 1105.16 763.692 1105.14 764.57C1105.15 765.404 1105.05 766.235 1104.83 767.04C1104.64 767.739 1104.3 768.388 1103.83 768.94C1103.37 769.473 1102.79 769.887 1102.14 770.15C1101.37 770.452 1100.54 770.599 1099.71 770.58L1094.15 770.51ZM1097.09 758.24H1098.83C1099.5 758.272 1100.16 758.153 1100.78 757.89C1101.25 757.658 1101.61 757.253 1101.78 756.76C1101.99 756.115 1102.09 755.438 1102.07 754.76C1102.13 754.029 1101.97 753.297 1101.63 752.65C1101.47 752.425 1101.26 752.237 1101.03 752.095C1100.79 751.954 1100.52 751.864 1100.25 751.83C1099.44 751.704 1098.62 751.647 1097.8 751.66H1097.1L1097.09 758.24ZM1097.09 768.41H1099.09C1099.57 768.475 1100.06 768.425 1100.52 768.266C1100.98 768.106 1101.39 767.84 1101.73 767.49C1102.25 766.579 1102.48 765.534 1102.39 764.49C1102.41 763.735 1102.29 762.982 1102.04 762.27C1101.83 761.705 1101.44 761.228 1100.92 760.92C1100.28 760.583 1099.57 760.424 1098.85 760.46H1097.11L1097.09 768.41Z" fill="white"/>
<path d="M1106.63 770.51L1111.1 749.45H1113.93L1118.43 770.51H1115.65L1114.65 765.21H1110.36L1109.36 770.51H1106.63ZM1110.79 763.1H1114.3L1112.53 753.61L1110.79 763.1Z" fill="white"/>
<path d="M1120.56 770.51V749.45H1123.5V768.45H1128.88V770.56L1120.56 770.51Z" fill="white"/>
<path d="M1136 770.75C1134.77 770.823 1133.55 770.493 1132.53 769.81C1131.7 769.176 1131.1 768.292 1130.82 767.29C1130.49 766.14 1130.32 764.947 1130.34 763.75V756.31C1130.32 755.053 1130.48 753.8 1130.82 752.59C1131.09 751.599 1131.7 750.731 1132.53 750.13C1133.57 749.494 1134.78 749.19 1136 749.26C1137.09 749.206 1138.18 749.459 1139.13 749.99C1139.9 750.478 1140.48 751.211 1140.79 752.07C1141.15 753.114 1141.33 754.215 1141.3 755.32V757H1138.52V755.52C1138.52 754.828 1138.48 754.137 1138.4 753.45C1138.36 752.926 1138.13 752.434 1137.76 752.06C1137.26 751.684 1136.64 751.51 1136.02 751.57C1135.72 751.522 1135.41 751.537 1135.12 751.613C1134.82 751.689 1134.55 751.825 1134.3 752.013C1134.06 752.201 1133.87 752.436 1133.72 752.704C1133.58 752.971 1133.49 753.266 1133.46 753.57C1133.34 754.321 1133.28 755.08 1133.29 755.84V764.19C1133.27 765.034 1133.35 765.878 1133.55 766.7C1133.67 767.227 1133.97 767.694 1134.41 768.01C1134.9 768.293 1135.46 768.429 1136.02 768.4C1136.33 768.431 1136.64 768.4 1136.93 768.309C1137.23 768.218 1137.5 768.068 1137.74 767.87C1138.11 767.464 1138.34 766.948 1138.39 766.4C1138.48 765.677 1138.53 764.949 1138.52 764.22V762.66H1141.3V764.22C1141.32 765.367 1141.16 766.511 1140.83 767.61C1140.56 768.53 1139.99 769.335 1139.22 769.9C1138.26 770.511 1137.14 770.808 1136 770.75V770.75Z" fill="white"/>
<path d="M1149.5 770.75C1148.31 770.81 1147.12 770.522 1146.09 769.92C1145.23 769.355 1144.59 768.516 1144.27 767.54C1143.88 766.37 1143.7 765.142 1143.72 763.91V755.91C1143.69 754.696 1143.88 753.487 1144.28 752.34C1144.61 751.394 1145.25 750.587 1146.1 750.05C1147.13 749.476 1148.31 749.202 1149.49 749.26C1150.67 749.201 1151.84 749.482 1152.87 750.07C1153.71 750.614 1154.34 751.419 1154.68 752.36C1155.08 753.503 1155.27 754.709 1155.24 755.92V763.92C1155.26 765.14 1155.07 766.355 1154.68 767.51C1154.35 768.478 1153.71 769.313 1152.87 769.89C1151.86 770.503 1150.68 770.802 1149.5 770.75V770.75ZM1149.5 768.44C1150.13 768.485 1150.75 768.316 1151.27 767.96C1151.68 767.614 1151.97 767.139 1152.08 766.61C1152.23 765.953 1152.3 765.282 1152.29 764.61V755.38C1152.3 754.707 1152.23 754.036 1152.08 753.38C1151.97 752.865 1151.68 752.405 1151.27 752.08C1150.75 751.739 1150.12 751.578 1149.5 751.62C1148.87 751.583 1148.25 751.744 1147.72 752.08C1147.3 752.402 1147.01 752.863 1146.9 753.38C1146.75 754.036 1146.68 754.707 1146.69 755.38V764.61C1146.68 765.282 1146.75 765.953 1146.9 766.61C1147.01 767.141 1147.3 767.618 1147.72 767.96C1148.24 768.311 1148.87 768.476 1149.5 768.43V768.44Z" fill="white"/>
<path d="M1158.13 770.51V749.45H1160.13L1166.13 763.45V749.45H1168.57V770.51H1166.7L1160.64 756.13V770.51H1158.13Z" fill="white"/>
<path d="M1175.08 770.51V763.07L1170.53 749.45H1173.26L1176.48 759.62L1179.65 749.45H1182.41L1177.89 763.07V770.51H1175.08Z" fill="white"/>
<path d="M1064.42 877V869.56L1059.87 855.94H1062.6L1065.82 866.11L1068.99 855.94H1071.75L1067.23 869.56V877H1064.42Z" fill="white"/>
<path d="M1079.09 877.22C1077.9 877.281 1076.71 876.993 1075.68 876.39C1074.82 875.825 1074.18 874.986 1073.86 874.01C1073.47 872.84 1073.29 871.612 1073.31 870.38V862.38C1073.28 861.163 1073.47 859.95 1073.87 858.8C1074.2 857.853 1074.84 857.046 1075.69 856.51C1076.72 855.935 1077.9 855.661 1079.08 855.72C1080.26 855.66 1081.43 855.942 1082.46 856.53C1083.3 857.074 1083.93 857.879 1084.27 858.82C1084.67 859.964 1084.86 861.169 1084.83 862.38V870.38C1084.85 871.6 1084.66 872.815 1084.27 873.97C1083.94 874.938 1083.3 875.773 1082.46 876.35C1081.45 876.967 1080.27 877.269 1079.09 877.22V877.22ZM1079.09 874.91C1079.72 874.956 1080.34 874.786 1080.86 874.43C1081.28 874.085 1081.56 873.609 1081.67 873.08C1081.82 872.423 1081.89 871.752 1081.88 871.08V861.8C1081.89 861.127 1081.82 860.456 1081.67 859.8C1081.56 859.285 1081.27 858.825 1080.86 858.5C1080.34 858.159 1079.71 857.998 1079.09 858.04C1078.46 858.003 1077.84 858.164 1077.31 858.5C1076.89 858.821 1076.6 859.282 1076.49 859.8C1076.34 860.456 1076.27 861.127 1076.28 861.8V871C1076.27 871.672 1076.34 872.343 1076.49 873C1076.6 873.531 1076.89 874.009 1077.31 874.35C1077.82 874.733 1078.45 874.93 1079.09 874.91V874.91Z" fill="white"/>
<path d="M1087.72 877V855.92H1090.66V874.92H1096V877H1087.72Z" fill="white"/>
<path d="M1103.27 877.22C1102.08 877.281 1100.89 876.993 1099.86 876.39C1098.99 875.829 1098.33 874.986 1098 874C1097.61 872.83 1097.43 871.602 1097.45 870.37V862.37C1097.42 861.153 1097.61 859.94 1098.01 858.79C1098.34 857.843 1098.98 857.036 1099.83 856.5C1100.86 855.925 1102.04 855.651 1103.22 855.71C1104.4 855.651 1105.57 855.932 1106.6 856.52C1107.44 857.064 1108.07 857.869 1108.41 858.81C1108.81 859.954 1109 861.159 1108.97 862.37V870.37C1108.99 871.59 1108.8 872.805 1108.41 873.96C1108.08 874.928 1107.44 875.763 1106.6 876.34C1105.6 876.953 1104.44 877.258 1103.27 877.22V877.22ZM1103.27 874.91C1103.9 874.956 1104.52 874.786 1105.04 874.43C1105.46 874.085 1105.74 873.609 1105.85 873.08C1106 872.423 1106.07 871.752 1106.06 871.08V861.8C1106.07 861.127 1106 860.456 1105.85 859.8C1105.74 859.285 1105.45 858.825 1105.04 858.5C1104.52 858.159 1103.89 857.998 1103.27 858.04C1102.64 858.003 1102.02 858.164 1101.49 858.5C1101.07 858.821 1100.78 859.282 1100.67 859.8C1100.52 860.456 1100.45 861.127 1100.46 861.8V871C1100.45 871.672 1100.52 872.343 1100.67 873C1100.78 873.531 1101.07 874.009 1101.49 874.35C1102 874.733 1102.63 874.93 1103.27 874.91V874.91Z" fill="white"/>
<path d="M1116.86 877.22C1115.81 877.254 1114.76 876.983 1113.86 876.44C1113.05 875.915 1112.41 875.164 1112.03 874.28C1111.59 873.268 1111.34 872.183 1111.3 871.08L1113.9 870.38C1113.95 871.109 1114.07 871.833 1114.25 872.54C1114.4 873.173 1114.71 873.758 1115.15 874.24C1115.38 874.467 1115.65 874.643 1115.95 874.757C1116.25 874.87 1116.57 874.919 1116.89 874.9C1117.21 874.923 1117.53 874.878 1117.82 874.767C1118.12 874.657 1118.39 874.484 1118.62 874.26C1119.04 873.746 1119.25 873.092 1119.2 872.43C1119.24 871.613 1119.01 870.806 1118.55 870.13C1118.06 869.494 1117.51 868.908 1116.91 868.38L1113.37 865.26C1112.72 864.71 1112.2 864.028 1111.83 863.26C1111.48 862.415 1111.31 861.505 1111.34 860.59C1111.3 859.932 1111.4 859.273 1111.63 858.655C1111.86 858.037 1112.21 857.473 1112.67 857C1113.16 856.562 1113.73 856.224 1114.35 856.006C1114.97 855.788 1115.62 855.694 1116.28 855.73C1117.03 855.718 1117.77 855.83 1118.48 856.06C1119.08 856.257 1119.63 856.601 1120.07 857.06C1120.51 857.554 1120.85 858.132 1121.07 858.76C1121.34 859.535 1121.51 860.342 1121.58 861.16L1119.08 861.84C1119.04 861.195 1118.93 860.555 1118.77 859.93C1118.64 859.394 1118.35 858.907 1117.95 858.53C1117.48 858.147 1116.88 857.957 1116.27 858C1115.65 857.962 1115.04 858.17 1114.57 858.58C1114.35 858.81 1114.19 859.083 1114.08 859.381C1113.98 859.679 1113.94 859.995 1113.96 860.31C1113.94 860.858 1114.05 861.403 1114.28 861.9C1114.55 862.382 1114.91 862.812 1115.33 863.17L1118.89 866.29C1119.71 867.009 1120.42 867.844 1121 868.77C1121.63 869.799 1121.94 870.986 1121.91 872.19C1121.93 873.128 1121.71 874.056 1121.26 874.88C1120.85 875.616 1120.23 876.217 1119.48 876.61C1118.67 877.027 1117.77 877.236 1116.86 877.22V877.22Z" fill="white"/>
<path d="M1123.05 877L1127.52 855.94H1130.35L1134.85 877H1132.07L1131.07 871.7H1126.78L1125.78 877H1123.05ZM1127.21 869.59H1130.72L1128.95 860.1L1127.21 869.59Z" fill="white"/>
<path d="M1283.83 879C1282.6 879.074 1281.38 878.743 1280.36 878.06C1279.53 877.428 1278.93 876.544 1278.64 875.54C1278.31 874.39 1278.14 873.197 1278.16 872V864.6C1278.14 863.343 1278.3 862.09 1278.64 860.88C1278.91 859.887 1279.52 859.018 1280.36 858.42C1281.4 857.784 1282.61 857.48 1283.83 857.55C1284.92 857.496 1286.01 857.749 1286.96 858.28C1287.73 858.768 1288.32 859.5 1288.62 860.36C1288.98 861.404 1289.15 862.505 1289.13 863.61V865.27H1286.35V863.79C1286.35 863.098 1286.31 862.407 1286.23 861.72C1286.19 861.196 1285.96 860.704 1285.59 860.33C1285.09 859.954 1284.47 859.78 1283.85 859.84C1283.55 859.792 1283.24 859.807 1282.95 859.883C1282.65 859.959 1282.38 860.095 1282.13 860.283C1281.89 860.471 1281.7 860.706 1281.55 860.974C1281.41 861.241 1281.32 861.536 1281.29 861.84C1281.17 862.591 1281.11 863.35 1281.12 864.11V872.46C1281.1 873.304 1281.18 874.148 1281.38 874.97C1281.5 875.498 1281.8 875.964 1282.24 876.28C1282.73 876.563 1283.29 876.699 1283.85 876.67C1284.16 876.7 1284.47 876.669 1284.76 876.578C1285.06 876.487 1285.33 876.338 1285.57 876.14C1285.94 875.733 1286.17 875.217 1286.22 874.67C1286.31 873.947 1286.36 873.219 1286.35 872.49V871H1289.13V872.56C1289.15 873.707 1288.99 874.851 1288.66 875.95C1288.39 876.87 1287.82 877.675 1287.05 878.24C1286.08 878.819 1284.96 879.084 1283.83 879V879Z" fill="white"/>
<path d="M1297.33 879C1296.14 879.06 1294.95 878.772 1293.92 878.17C1293.06 877.605 1292.42 876.766 1292.1 875.79C1291.72 874.619 1291.53 873.392 1291.56 872.16V864.16C1291.53 862.943 1291.72 861.73 1292.12 860.58C1292.45 859.633 1293.09 858.826 1293.94 858.29C1294.97 857.714 1296.15 857.441 1297.33 857.5C1298.51 857.441 1299.68 857.722 1300.71 858.31C1301.55 858.854 1302.18 859.659 1302.52 860.6C1302.92 861.744 1303.11 862.949 1303.08 864.16V872.16C1303.1 873.38 1302.91 874.595 1302.52 875.75C1302.19 876.718 1301.55 877.553 1300.71 878.13C1299.69 878.749 1298.52 879.051 1297.33 879V879ZM1297.33 876.69C1297.96 876.736 1298.58 876.566 1299.1 876.21C1299.52 875.865 1299.8 875.389 1299.91 874.86C1300.06 874.203 1300.13 873.532 1300.12 872.86V863.63C1300.13 862.957 1300.06 862.286 1299.91 861.63C1299.8 861.115 1299.51 860.655 1299.1 860.33C1298.58 859.989 1297.95 859.828 1297.33 859.87C1296.7 859.833 1296.08 859.994 1295.55 860.33C1295.13 860.652 1294.84 861.113 1294.73 861.63C1294.58 862.286 1294.51 862.957 1294.52 863.63V872.86C1294.51 873.532 1294.58 874.203 1294.73 874.86C1294.84 875.391 1295.13 875.868 1295.55 876.21C1296.07 876.571 1296.7 876.747 1297.33 876.71V876.69Z" fill="white"/>
<path d="M1306 878.79V857.73H1310.24C1311.43 857.694 1312.61 857.884 1313.72 858.29C1314.58 858.63 1315.29 859.265 1315.72 860.08C1316.2 861.09 1316.43 862.202 1316.38 863.32C1316.39 864.068 1316.3 864.814 1316.12 865.54C1315.97 866.158 1315.69 866.735 1315.29 867.23C1314.89 867.7 1314.37 868.047 1313.78 868.23L1316.78 878.79H1313.95L1311.19 868.91H1308.9V878.79H1306ZM1308.94 866.79H1310C1310.68 866.81 1311.36 866.705 1312 866.48C1312.5 866.284 1312.91 865.901 1313.14 865.41C1313.41 864.741 1313.53 864.021 1313.5 863.3C1313.58 862.362 1313.34 861.425 1312.82 860.64C1312.46 860.32 1312.03 860.081 1311.57 859.94C1311.11 859.799 1310.62 859.758 1310.14 859.82H1308.84L1308.94 866.79Z" fill="white"/>
<path d="M1324.83 879C1323.64 879.06 1322.45 878.772 1321.42 878.17C1320.56 877.605 1319.92 876.766 1319.6 875.79C1319.22 874.619 1319.03 873.392 1319.06 872.16V864.16C1319.03 862.943 1319.22 861.73 1319.62 860.58C1319.95 859.633 1320.59 858.826 1321.44 858.29C1322.47 857.714 1323.65 857.441 1324.83 857.5C1326.01 857.441 1327.18 857.722 1328.21 858.31C1329.05 858.854 1329.68 859.659 1330.02 860.6C1330.42 861.744 1330.61 862.949 1330.58 864.16V872.16C1330.6 873.38 1330.41 874.595 1330.02 875.75C1329.69 876.718 1329.05 877.553 1328.21 878.13C1327.19 878.749 1326.02 879.051 1324.83 879ZM1324.83 876.69C1325.46 876.736 1326.08 876.566 1326.6 876.21C1327.02 875.865 1327.3 875.389 1327.41 874.86C1327.56 874.203 1327.63 873.532 1327.62 872.86V863.63C1327.63 862.957 1327.56 862.286 1327.41 861.63C1327.3 861.115 1327.01 860.655 1326.6 860.33C1326.08 859.989 1325.45 859.828 1324.83 859.87C1324.2 859.833 1323.58 859.994 1323.05 860.33C1322.63 860.652 1322.34 861.113 1322.23 861.63C1322.08 862.286 1322.01 862.957 1322.02 863.63V872.86C1322.01 873.532 1322.08 874.203 1322.23 874.86C1322.34 875.391 1322.63 875.868 1323.05 876.21C1323.57 876.571 1324.2 876.747 1324.83 876.71V876.69Z" fill="white"/>
<path d="M1333.62 878.79V857.73H1336.51V878.79H1333.62Z" fill="white"/>
<path d="M1345.19 879C1343.96 879.074 1342.74 878.743 1341.72 878.06C1340.89 877.428 1340.29 876.544 1340 875.54C1339.67 874.39 1339.5 873.197 1339.52 872V864.6C1339.5 863.343 1339.66 862.09 1340 860.88C1340.27 859.887 1340.88 859.018 1341.72 858.42C1342.76 857.784 1343.97 857.48 1345.19 857.55C1346.28 857.496 1347.37 857.749 1348.32 858.28C1349.09 858.768 1349.68 859.5 1349.98 860.36C1350.34 861.404 1350.51 862.505 1350.49 863.61V865.27H1347.71V863.79C1347.71 863.098 1347.67 862.407 1347.59 861.72C1347.55 861.196 1347.32 860.704 1346.95 860.33C1346.45 859.954 1345.83 859.78 1345.21 859.84C1344.91 859.792 1344.6 859.807 1344.31 859.883C1344.01 859.959 1343.73 860.095 1343.49 860.283C1343.25 860.471 1343.06 860.706 1342.91 860.974C1342.77 861.241 1342.68 861.536 1342.65 861.84C1342.53 862.591 1342.47 863.35 1342.48 864.11V872.46C1342.46 873.304 1342.54 874.148 1342.74 874.97C1342.86 875.498 1343.16 875.964 1343.6 876.28C1344.09 876.563 1344.65 876.699 1345.21 876.67C1345.52 876.7 1345.83 876.669 1346.12 876.578C1346.42 876.487 1346.69 876.338 1346.93 876.14C1347.3 875.733 1347.53 875.217 1347.58 874.67C1347.67 873.947 1347.72 873.219 1347.71 872.49V871H1350.49V872.56C1350.51 873.707 1350.35 874.851 1350.02 875.95C1349.75 876.87 1349.18 877.675 1348.41 878.24C1347.44 878.819 1346.32 879.084 1345.19 879V879Z" fill="white"/>
<path d="M1358.68 879C1357.49 879.06 1356.3 878.772 1355.27 878.17C1354.41 877.605 1353.77 876.766 1353.45 875.79C1353.07 874.619 1352.88 873.392 1352.91 872.16V864.16C1352.88 862.943 1353.07 861.73 1353.47 860.58C1353.8 859.633 1354.44 858.826 1355.29 858.29C1356.32 857.714 1357.5 857.441 1358.68 857.5C1359.86 857.441 1361.03 857.722 1362.06 858.31C1362.9 858.854 1363.53 859.659 1363.87 860.6C1364.27 861.744 1364.46 862.949 1364.43 864.16V872.16C1364.45 873.38 1364.26 874.595 1363.87 875.75C1363.54 876.718 1362.9 877.553 1362.06 878.13C1361.04 878.749 1359.87 879.051 1358.68 879V879ZM1358.68 876.69C1359.31 876.736 1359.93 876.566 1360.45 876.21C1360.87 875.865 1361.15 875.389 1361.26 874.86C1361.41 874.203 1361.48 873.532 1361.47 872.86V863.63C1361.48 862.957 1361.41 862.286 1361.26 861.63C1361.15 861.115 1360.86 860.655 1360.45 860.33C1359.93 859.989 1359.3 859.828 1358.68 859.87C1358.05 859.833 1357.43 859.994 1356.9 860.33C1356.48 860.652 1356.19 861.113 1356.08 861.63C1355.93 862.286 1355.86 862.957 1355.87 863.63V872.86C1355.86 873.532 1355.93 874.203 1356.08 874.86C1356.19 875.391 1356.48 875.868 1356.9 876.21C1357.42 876.571 1358.05 876.747 1358.68 876.71V876.69Z" fill="white"/>
<circle cx="478.5" cy="137.5" r="15.5" fill="#96FF00"/>
<circle cx="674.5" cy="381.5" r="13.5" fill="#96FF00"/>
<circle cx="700.5" cy="652.5" r="13.5" fill="#96FF00"/>
<ellipse cx="926.5" cy="691" rx="8.5" ry="8" fill="#96FF00"/>
<circle cx="1194" cy="695" r="10" fill="#96FF00"/>
</g>
<defs>
<filter id="filter0_d" x="0" y="0" width="1448" height="908" filterUnits="userSpaceOnUse" color-interpolation-filters="sRGB">
<feFlood flood-opacity="0" result="BackgroundImageFix"/>
<feColorMatrix in="SourceAlpha" type="matrix" values="0 0 0 0 0 0 0 0 0 0 0 0 0 0 0 0 0 0 127 0"/>
<feOffset dy="4"/>
<feGaussianBlur stdDeviation="2"/>
<feColorMatrix type="matrix" values="0 0 0 0 0 0 0 0 0 0 0 0 0 0 0 0 0 0 0.25 0"/>
<feBlend mode="normal" in2="BackgroundImageFix" result="effect1_dropShadow"/>
<feBlend mode="normal" in="SourceGraphic" in2="effect1_dropShadow" result="shape"/>
</filter>
</defs>
</svg>
