<svg xmlns="http://www.w3.org/2000/svg" viewBox="0 0 1444.77 1617.38">
    <defs>
        <style>.cls-1{fill:#cbff88;}.cls-2{fill:#96ff00;}</style>
    </defs>
    <title>red_2</title>
    <g id="Capa_2" data-name="Capa 2">
        <g id="Capa_1-2" data-name="Capa 1">
            <path d="M1444.77,835.74s-251.28-42.23-386.18-129c-235.48-151.49-506.35-151.64-672.31-84C88.14,744.22,0,1023,0,1023V0H1440.19l3.74,683.15.07,13Z"/>
            <rect x="0.33" y="1613.85" width="3.53" height="3.53"/>
            <path class="cls-1"
                  d="M337.08,0h16.84c-13.26,20.59-24.64,42.59-36.08,64.07C281.23,132.81,226.92,213,140,207.65c8.76,52.39-20.31,107-69.22,129.51a105.07,105.07,0,0,1-32.58,9.05c-9.43,1-18.74-.11-28.14.16a41.33,41.33,0,0,0-9.71-.53l0-14c12.25-.7,25,.63,36.81-.73,60.4-6.94,101.54-72.27,86.2-129.81-1.11-4.19,2.24-10.12,7.21-9.47C243.93,206.58,286,85.19,337.08,0Z"/>
            <path class="cls-1"
                  d="M1059,388.51c-68.68-32.6-146.07-44.33-216-74.73-76.65-33.34-128.18-81.66-172.31-152.19C636.17,106.37,606.39,48.52,564.69,0h20c33.83,41.82,60,89.68,88.25,136.51,26,43,53.38,86.11,93.82,116.92,33.49,25.5,72.11,43.65,111.31,58.5,61.8,23.4,128.73,35.29,188.52,63.67C1075.25,379.73,1067.65,392.62,1059,388.51Z"/>
            <path class="cls-1"
                  d="M1308.07,635.43c23.05,25,50.19,56.62,85.78,61,16,2,33.17.59,50.15-.28l-.07-13c-10.58.12-21.16.15-31.74-.32-31.2-1.39-47.17-12.63-70.25-34.24-46.63-43.67-81.76-97.92-127.36-142.62-6.88-6.74-17.46,3.82-10.57,10.57C1241.74,553.53,1272.37,596.63,1308.07,635.43Z"/>
            <circle class="cls-2" cx="1140.09" cy="444.85" r="54.42"/>
            <path class="cls-2"
                  d="M1140.09,387.44a57.41,57.41,0,1,0,57.41,57.41A57.48,57.48,0,0,0,1140.09,387.44Zm0,108.84a51.43,51.43,0,1,1,51.43-51.43A51.49,51.49,0,0,1,1140.09,496.28Z"/>
        </g>
    </g>
</svg>
