<svg xmlns="http://www.w3.org/2000/svg" viewBox="0 0 1440.22 1081.99">
    <defs>
        <style>.cls-1{fill:#cbff88;}.cls-2{fill:#96ff00;}</style>
    </defs>
    <title>san_juan_1</title>
    <g id="Capa_2" data-name="Capa 2">
        <g id="Capa_1-2" data-name="Capa 1">
            <path d="M1440,0V289.06s-71.75-32.23-114.19-91.28S1222.33,44.17,1222.33,44.17L1191.44,0Z"/>
            <path d="M199.73,588.59c-20.47,20.31-59.07,37.8-86.46,20.71-12.12-7.57-17.92-20.92-24.13-33.11-10.17-19.94-23.33-35.91-42-48.61A129.49,129.49,0,0,0,0,507.41V492.34q2.38.51,4.8,1.14c29.63,7.7,57.69,24,78,47.08,22,25,27.44,71.57,71.5,59.13,59.55-16.81,56.34-74.67,45.29-124C197.61,467,211,463.29,212.91,472,221.43,510,230.58,558,199.73,588.59Z"/>
            <path d="M199.73,588.59c-20.47,20.31-59.07,37.8-86.46,20.71-12.12-7.57-17.92-20.92-24.13-33.11-10.17-19.94-23.33-35.91-42-48.61A129.49,129.49,0,0,0,0,507.41V492.34q2.38.51,4.8,1.14c29.63,7.7,57.69,24,78,47.08,22,25,27.44,71.57,71.5,59.13,59.55-16.81,56.34-74.67,45.29-124C197.61,467,211,463.29,212.91,472,221.43,510,230.58,558,199.73,588.59Z"/>
            <path d="M277.62,402.39A42.61,42.61,0,1,1,235,359.78,42.66,42.66,0,0,1,277.62,402.39Z"/>
            <path d="M980.34,0h16.15C985,16.41,975.14,34.11,965.66,51.83c-3.17,5.9-6.28,11.8-9.4,17.66-33.92,63.69-84.24,138-164.79,133,8.12,48.55-18.81,99.17-64.14,120a97.06,97.06,0,0,1-30.19,8.39c-8.73,1-17.36-.1-26.08.15q-28-4.62-34.74,27.56a34.84,34.84,0,0,1,3,10.44c-2,30.52-13.26,46.28-37.82,65.92-23.69,18.93-49.93,36.11-81.39,29.37-23.75-5.1-43.18-12.72-67.87-6.42s-38.76,21.55-59,35.12c-49.68,33.29-93.25-34.82-91.73-79.64.3-8.91,14.16-8.92,13.86,0-.59,17.29,3.25,33.72,13,48.2,4.35,6.45,14.58,18.44,22.85,21.32,13.76,4.78,34.27-4.32,46.12-11.41,19.89-11.9,36.43-24.52,59.9-29,28.19-5.35,51,8.54,78.27,8.36,31.38-.21,78.16-33,87.66-63.73,7-22.64-11.83-41.93,10.26-60,17.81-14.56,41.94-7.89,62.75-10.28,56-6.44,94.09-67,79.88-120.3-1-3.87,2.07-9.37,6.68-8.77C871.42,199.4,913,121,952.31,48.83,961.58,31.79,970.73,15.09,980.34,0Z"/>
            <path d="M1440.22,284.62v15.06c-69.54-30.84-116.59-75.3-157-139.83-23.4-37.4-44.44-76.09-69.14-111.77A434.13,434.13,0,0,0,1176,0H1195a467.52,467.52,0,0,1,33.17,43.61c20.3,29.86,38.19,61.68,57.08,93,24,39.87,49.45,79.79,86.93,108.34C1393.13,260.89,1416.24,273.73,1440.22,284.62Z"/>
            <path d="M1111.09,24c67.5-.44,96,211.93,160.49,275.64s168.64,55.92,168.64,55.92V299.68c-69.54-30.84-116.59-75.3-157-139.83-23.4-37.4-44.44-76.09-69.14-111.77A434.16,434.16,0,0,0,1176,0H996.49C985,16.41,975.14,34.11,965.66,51.83c-3.17,5.9-6.28,11.8-9.4,17.66-33.92,63.69-84.24,138-164.79,133,8.12,48.55-18.81,99.17-64.14,120a97.06,97.06,0,0,1-30.19,8.39c-8.73.95-17.36-.1-26.08.15q-28-4.62-34.74,27.56a34.84,34.84,0,0,1,3,10.44c-2,30.52-13.26,46.28-37.82,65.92-23.69,18.93-49.93,36.11-81.39,29.37-23.75-5.1-43.18-12.72-67.87-6.42s-38.76,21.55-59,35.12c-49.68,33.29-93.25-34.82-91.73-79.64.3-8.91,14.16-8.92,13.86,0-.59,17.29,3.25,33.72,13,48.2,4.35,6.45,14.58,18.44,22.85,21.32,13.76,4.78,34.27-4.32,46.12-11.41,19.89-11.9,36.43-24.52,59.9-29,28.19-5.35,51,8.54,78.27,8.36,31.38-.21,78.16-33,87.66-63.73,7-22.64-11.83-41.93,10.26-60,17.81-14.56,41.94-7.89,62.75-10.28,56-6.44,94.09-67,79.88-120.3-1-3.87,2.07-9.37,6.68-8.77C871.42,199.4,913,121,952.31,48.83c9.27-17,18.42-33.74,28-48.83H0V492.34q2.38.51,4.8,1.14c29.63,7.7,57.69,24,78,47.08,22,25,27.44,71.57,71.5,59.13,59.55-16.81,56.34-74.67,45.29-124C197.61,467,211,463.29,212.91,472c8.52,38,17.67,86-13.18,116.6-20.47,20.31-59.07,37.8-86.46,20.71-12.12-7.57-17.92-20.92-24.13-33.11-10.17-19.94-23.33-35.91-42-48.61A129.49,129.49,0,0,0,0,507.41V1082H1440.19V804c-2.39,101.87-146.69,246.31-392.11,233.13-247.48-13.29-315-186.2-295.48-471.18S1043.59,24.48,1111.09,24ZM235,445a42.61,42.61,0,1,1,42.61-42.61A42.65,42.65,0,0,1,235,445Z"/>
            <path class="cls-1"
                  d="M199.73,588.59c-20.47,20.31-59.07,37.8-86.46,20.71-12.12-7.57-17.92-20.92-24.13-33.11-10.17-19.94-23.33-35.91-42-48.61A129.49,129.49,0,0,0,0,507.41V492.34q2.38.51,4.8,1.14c29.63,7.7,57.69,24,78,47.08,22,25,27.44,71.57,71.5,59.13,59.55-16.81,56.34-74.67,45.29-124C197.61,467,211,463.29,212.91,472,221.43,510,230.58,558,199.73,588.59Z"/>
            <path class="cls-1"
                  d="M980.34,0h16.15C985,16.41,975.14,34.11,965.66,51.83c-3.17,5.9-6.28,11.8-9.4,17.66-33.92,63.69-84.24,138-164.79,133,8.12,48.55-18.81,99.17-64.14,120a97.06,97.06,0,0,1-30.19,8.39c-8.73,1-17.36-.1-26.08.15q-28-4.62-34.74,27.56a34.84,34.84,0,0,1,3,10.44c-2,30.52-13.26,46.28-37.82,65.92-23.69,18.93-49.93,36.11-81.39,29.37-23.75-5.1-43.18-12.72-67.87-6.42s-38.76,21.55-59,35.12c-49.68,33.29-93.25-34.82-91.73-79.64.3-8.91,14.16-8.92,13.86,0-.59,17.29,3.25,33.72,13,48.2,4.35,6.45,14.58,18.44,22.85,21.32,13.76,4.78,34.27-4.32,46.12-11.41,19.89-11.9,36.43-24.52,59.9-29,28.19-5.35,51,8.54,78.27,8.36,31.38-.21,78.16-33,87.66-63.73,7-22.64-11.83-41.93,10.26-60,17.81-14.56,41.94-7.89,62.75-10.28,56-6.44,94.09-67,79.88-120.3-1-3.87,2.07-9.37,6.68-8.77C871.42,199.4,913,121,952.31,48.83,961.58,31.79,970.73,15.09,980.34,0Z"/>
            <path class="cls-1"
                  d="M1440.22,299.68c-69.54-30.84-116.59-75.3-157-139.83-23.4-37.4-44.44-76.09-69.14-111.77A434.13,434.13,0,0,0,1176,0H1195a467.52,467.52,0,0,1,33.17,43.61c20.3,29.86,38.19,61.68,57.08,93,24,39.87,49.45,79.79,86.93,108.34,20.93,15.94,44,28.78,68,39.67Z"/>
            <circle class="cls-2" cx="235.01" cy="402.39" r="39.84"/>
            <path class="cls-2"
                  d="M235,359.78a42.61,42.61,0,1,0,42.61,42.61A42.66,42.66,0,0,0,235,359.78Zm0,79.68a37.07,37.07,0,1,1,37.07-37.07A37.11,37.11,0,0,1,235,439.46Z"/>
            <path class="cls-1"
                  d="M353.92,1082c13.77-21.38,29.59-41.24,49.64-57.42,15.39-12.42,36.46-28.35,56.92-22.7,16.34,4.51,32.24,16.28,45.82,26,22.23,15.92,41.31,34.24,58.39,54.12h20c-17.3-21.39-36.62-41.19-59.24-58.46-19.89-15.19-49-39.63-75.95-38.71-31.77,1.08-64.87,33.78-84,56.31-10.05,11.85-19.37,25.79-28.41,40.86Z"/>
        </g>
    </g>
</svg>
