<svg xmlns="http://www.w3.org/2000/svg" viewBox="0 0 1439.11 554.21">
    <defs>
        <style>.cls-1{fill:#cbff88;}.cls-2{fill:#96ff00;}</style>
    </defs>
    <title>unduavi</title>
    <g id="Capa_2" data-name="Capa 2">
        <g id="Capa_1-2" data-name="Capa 1">
            <g id="Capa_2-2" data-name="Capa 2">
                <g id="negro">
                    <path d="M851.49,94.74a4.8,4.8,0,0,1-2.26,4.16,4.19,4.19,0,0,1-2.28.67,4.44,4.44,0,0,1-2.11-.54c-13.73-7.2-23.08-18.47-31-30.82-3.67-5.76-7-11.76-10.33-17.68-2.57-4.59-5.23-9.34-8-13.87C785.66,20.32,772.44,9.29,757.66,0h16.51a109.5,109.5,0,0,1,26.21,27.57c3.88,6,7.43,12.37,10.85,18.57a242.07,242.07,0,0,0,13.23,22.07C831,77.5,838.73,85.75,849.24,91.3A3.92,3.92,0,0,1,851.49,94.74Z"/>
                    <path d="M941.64,114.43a36.26,36.26,0,1,1-36.26-36.21A36.29,36.29,0,0,1,941.64,114.43Z"/>
                    <path d="M1439.1,486,1439,68.21V0H774.17a109.5,109.5,0,0,1,26.21,27.57c3.88,6,7.43,12.37,10.85,18.57a242.07,242.07,0,0,0,13.23,22.07C831,77.5,838.73,85.75,849.24,91.3a3.92,3.92,0,0,1,2.25,3.44,4.8,4.8,0,0,1-2.26,4.16,4.19,4.19,0,0,1-2.28.67,4.44,4.44,0,0,1-2.11-.54c-13.73-7.2-23.08-18.47-31-30.82-3.67-5.76-7-11.76-10.33-17.68-2.57-4.59-5.23-9.34-8-13.87C785.66,20.32,772.44,9.29,757.66,0H0V554.21H1069.33c-1.71-10.49-3.4-21.28-4.25-32a145.17,145.17,0,0,1,1.67-36.19,209.31,209.31,0,0,1,8.41-32.36c10.41-30.75,14.42-54.48,13.42-79.36-.06-1.68-.11-3.41-.15-5.16-.15-6-.31-12.23-1.53-18-1.8-8.36-7.45-12.61-14-17.53l-1.6-1.13a138.42,138.42,0,0,1-19.12-17.08c-12.17-13.34-22.47-29.74-32.44-51.62-5.36-11.76-10-24.31-14.45-36.43-10.85-29.41-22.07-59.82-44.76-82.39a4.15,4.15,0,0,1-1.31-3,4.57,4.57,0,0,1,1.37-3.19,4.24,4.24,0,0,1,6-.3l.21.2c23.89,23.76,35.67,55.43,47.06,86,6.23,16.73,12.66,34,21,49.75A157.64,157.64,0,0,0,1081,328.56c16.27,12.23,16.42,30,16.57,48.68v5c.4,25.83-5.31,48.22-14,73.89A187.93,187.93,0,0,0,1076,486a166.26,166.26,0,0,0-.56,49.9c.87,6.09,1.87,12.26,2.86,18.31h360.85ZM905.38,150.72a36.25,36.25,0,1,1,36.26-36.29A36.25,36.25,0,0,1,905.38,150.72Z"/>
                    <path d="M1076,486a166.26,166.26,0,0,0-.56,49.9c.87,6.09,1.87,12.26,2.86,18.31h-8.93c-1.71-10.49-3.4-21.28-4.25-32a145.17,145.17,0,0,1,1.67-36.19,209.31,209.31,0,0,1,8.41-32.36c10.41-30.75,14.42-54.48,13.42-79.36-.06-1.68-.11-3.41-.15-5.16-.15-6-.31-12.23-1.53-18-1.8-8.36-7.45-12.61-14-17.53l-1.6-1.13a138.42,138.42,0,0,1-19.12-17.08c-12.17-13.34-22.47-29.74-32.44-51.62-5.36-11.76-10-24.31-14.45-36.43-10.85-29.41-22.07-59.82-44.76-82.39a4.15,4.15,0,0,1-1.31-3,4.57,4.57,0,0,1,1.37-3.19,4.24,4.24,0,0,1,6-.3l.21.2c23.89,23.76,35.67,55.43,47.06,86,6.23,16.73,12.66,34,21,49.75A157.64,157.64,0,0,0,1081,328.56c16.27,12.23,16.42,30,16.57,48.68v5c.4,25.83-5.31,48.22-14,73.89A187.93,187.93,0,0,0,1076,486Z"/>
                    <path class="cls-1"
                          d="M851.49,94.74a4.8,4.8,0,0,1-2.26,4.16,4.19,4.19,0,0,1-2.28.67,4.44,4.44,0,0,1-2.11-.54c-13.73-7.2-23.08-18.47-31-30.82-3.67-5.76-7-11.76-10.33-17.68-2.57-4.59-5.23-9.34-8-13.87C785.66,20.32,772.44,9.29,757.66,0h16.51a109.5,109.5,0,0,1,26.21,27.57c3.88,6,7.43,12.37,10.85,18.57a242.07,242.07,0,0,0,13.23,22.07C831,77.5,838.73,85.75,849.24,91.3A3.92,3.92,0,0,1,851.49,94.74Z"/>
                    <path class="cls-1"
                          d="M1076,486a166.26,166.26,0,0,0-.56,49.9c.87,6.09,1.87,12.26,2.86,18.31h-8.93c-1.71-10.49-3.4-21.28-4.25-32a145.17,145.17,0,0,1,1.67-36.19,209.31,209.31,0,0,1,8.41-32.36c10.41-30.75,14.42-54.48,13.42-79.36-.06-1.68-.11-3.41-.15-5.16-.15-6-.31-12.23-1.53-18-1.8-8.36-7.45-12.61-14-17.53l-1.6-1.13a138.42,138.42,0,0,1-19.12-17.08c-12.17-13.34-22.47-29.74-32.44-51.62-5.36-11.76-10-24.31-14.45-36.43-10.85-29.41-22.07-59.82-44.76-82.39a4.15,4.15,0,0,1-1.31-3,4.57,4.57,0,0,1,1.37-3.19,4.24,4.24,0,0,1,6-.3l.21.2c23.89,23.76,35.67,55.43,47.06,86,6.23,16.73,12.66,34,21,49.75A157.64,157.64,0,0,0,1081,328.56c16.27,12.23,16.42,30,16.57,48.68v5c.4,25.83-5.31,48.22-14,73.89A187.93,187.93,0,0,0,1076,486Z"/>
                    <path class="cls-2"
                          d="M941.64,114.43a36.26,36.26,0,1,1-36.26-36.21A36.29,36.29,0,0,1,941.64,114.43Z"/>
                </g>
            </g>
        </g>
    </g>
</svg>
